G04 #@! TF.FileFunction,Copper,L1,Top,Signal*
%FSLAX46Y46*%
G04 Gerber Fmt 4.6, Leading zero omitted, Abs format (unit mm)*
G04 Created by KiCad (PCBNEW 4.0.7) date 07/15/18 20:55:20*
%MOMM*%
%LPD*%
G01*
G04 APERTURE LIST*
%ADD10C,0.100000*%
%ADD11R,2.400000X8.800000*%
%ADD12R,1.700000X1.700000*%
%ADD13O,1.700000X1.700000*%
%ADD14C,0.800000*%
%ADD15C,0.600000*%
G04 APERTURE END LIST*
D10*
D11*
X79875400Y-140296320D03*
X83835400Y-140296320D03*
X87795400Y-140296320D03*
X91755400Y-140296320D03*
X95715400Y-140296320D03*
X99675400Y-140296320D03*
X103635400Y-140296320D03*
X107595400Y-140296320D03*
X111555400Y-140296320D03*
X115515400Y-140296320D03*
X119475400Y-140296320D03*
X123435400Y-140296320D03*
X127395400Y-140296320D03*
X135315400Y-140296320D03*
X155115400Y-140296320D03*
X131355400Y-140296320D03*
X143235400Y-140296320D03*
X163035400Y-140296320D03*
X159075400Y-140296320D03*
X139275400Y-140296320D03*
X151155400Y-140296320D03*
X147195400Y-140296320D03*
D12*
X118618000Y-49352200D03*
D13*
X121158000Y-49352200D03*
X118618000Y-51892200D03*
X121158000Y-51892200D03*
X118618000Y-54432200D03*
X121158000Y-54432200D03*
X118618000Y-56972200D03*
X121158000Y-56972200D03*
X118618000Y-59512200D03*
X121158000Y-59512200D03*
X118618000Y-62052200D03*
X121158000Y-62052200D03*
X118618000Y-64592200D03*
X121158000Y-64592200D03*
X118618000Y-67132200D03*
X121158000Y-67132200D03*
X118618000Y-69672200D03*
X121158000Y-69672200D03*
X118618000Y-72212200D03*
X121158000Y-72212200D03*
X118618000Y-74752200D03*
X121158000Y-74752200D03*
X118618000Y-77292200D03*
X121158000Y-77292200D03*
X118618000Y-79832200D03*
X121158000Y-79832200D03*
X118618000Y-82372200D03*
X121158000Y-82372200D03*
X118618000Y-84912200D03*
X121158000Y-84912200D03*
X118618000Y-87452200D03*
X121158000Y-87452200D03*
X118618000Y-89992200D03*
X121158000Y-89992200D03*
X118618000Y-92532200D03*
X121158000Y-92532200D03*
X118618000Y-95072200D03*
X121158000Y-95072200D03*
X118618000Y-97612200D03*
X121158000Y-97612200D03*
D14*
X85244940Y-95023940D03*
X87172800Y-92565220D03*
X89100660Y-89938860D03*
X91000580Y-87480140D03*
X92928440Y-84853780D03*
X94800420Y-82450940D03*
X96756220Y-79880460D03*
X98628200Y-77226160D03*
X100388420Y-74851260D03*
X102344220Y-72224900D03*
X105780840Y-67195700D03*
X113799620Y-54622700D03*
X104188260Y-69598540D03*
X108993940Y-62054740D03*
X115420140Y-51800760D03*
X107429300Y-64513460D03*
X112262920Y-56941720D03*
X110586520Y-59596020D03*
X121142760Y-45552360D03*
D15*
X91755400Y-140296320D02*
X91755400Y-105024360D01*
X85244940Y-98513900D02*
X85244940Y-95023940D01*
X91755400Y-105024360D02*
X85244940Y-98513900D01*
X95715400Y-107282560D02*
X87228680Y-98795840D01*
X87228680Y-98795840D02*
X87228680Y-92593160D01*
X95715400Y-107282560D02*
X95715400Y-140296320D01*
X87200740Y-92593160D02*
X87228680Y-92593160D01*
X87172800Y-92565220D02*
X87200740Y-92593160D01*
X99675400Y-109398520D02*
X89128600Y-98851720D01*
X89128600Y-98851720D02*
X89128600Y-89916000D01*
X99675400Y-109398520D02*
X99675400Y-140296320D01*
X89128600Y-89938860D02*
X89128600Y-89916000D01*
X89100660Y-89938860D02*
X89128600Y-89938860D01*
X103635400Y-111598300D02*
X91084400Y-99047300D01*
X91084400Y-99047300D02*
X91056460Y-87508080D01*
X103635400Y-111598300D02*
X103635400Y-140296320D01*
X91028520Y-87508080D02*
X91056460Y-87508080D01*
X91000580Y-87480140D02*
X91028520Y-87508080D01*
X93040038Y-84853995D02*
X93040038Y-84854038D01*
X92928655Y-84853995D02*
X93040038Y-84853995D01*
X92928440Y-84853780D02*
X92928655Y-84853995D01*
X107595400Y-140296320D02*
X107595400Y-113853960D01*
X93012260Y-99270820D02*
X93040038Y-84854038D01*
X93040038Y-84854038D02*
X93040200Y-84769960D01*
X107595400Y-113853960D02*
X93012260Y-99270820D01*
X111555400Y-116028340D02*
X110284260Y-114757200D01*
X110284260Y-114757200D02*
X110337600Y-114757200D01*
X110337600Y-114757200D02*
X94828360Y-99247960D01*
X94828360Y-99247960D02*
X94828360Y-82395060D01*
X111555400Y-116028340D02*
X111555400Y-140296320D01*
X94828360Y-82450940D02*
X94828360Y-82395060D01*
X94800420Y-82450940D02*
X94828360Y-82450940D01*
X115515400Y-117976660D02*
X111229140Y-113690400D01*
X111229140Y-113690400D02*
X111175800Y-113690400D01*
X111175800Y-113690400D02*
X96812100Y-99326700D01*
X96812100Y-99326700D02*
X96812100Y-79692500D01*
X115515400Y-117976660D02*
X115515400Y-140296320D01*
X96812100Y-79880460D02*
X96812100Y-79692500D01*
X96756220Y-79880460D02*
X96812100Y-79880460D01*
X119475400Y-120243600D02*
X111860480Y-112628680D01*
X111860480Y-112628680D02*
X111866680Y-112628680D01*
X111866680Y-112628680D02*
X98739960Y-99501960D01*
X98739960Y-99501960D02*
X98739960Y-77025500D01*
X119475400Y-120243600D02*
X119475400Y-140296320D01*
X98739960Y-77226160D02*
X98739960Y-77025500D01*
X98628200Y-77226160D02*
X98739960Y-77226160D01*
X123435400Y-122322880D02*
X112666780Y-111554260D01*
X112666780Y-111554260D02*
X112666780Y-111554260D01*
X112666780Y-111554260D02*
X100500180Y-99387660D01*
X100500180Y-99387660D02*
X100500180Y-74795380D01*
X123435400Y-122322880D02*
X123435400Y-140296320D01*
X100500180Y-74851260D02*
X100500180Y-74795380D01*
X100388420Y-74851260D02*
X100500180Y-74851260D01*
X127395400Y-124535360D02*
X113372900Y-110512860D01*
X113372900Y-110512860D02*
X113347500Y-110512860D01*
X113347500Y-110512860D02*
X102400100Y-99565460D01*
X102400100Y-99565460D02*
X102400100Y-72052180D01*
X127395400Y-124535360D02*
X127395400Y-140296320D01*
X102400100Y-72224900D02*
X102400100Y-72052180D01*
X102344220Y-72224900D02*
X102400100Y-72224900D01*
X105836703Y-67195717D02*
X105836703Y-67194488D01*
X105780857Y-67195717D02*
X105836703Y-67195717D01*
X105780840Y-67195700D02*
X105780857Y-67195717D01*
X135315400Y-140296320D02*
X135315400Y-129308300D01*
X105826560Y-99811840D02*
X105836703Y-67194488D01*
X105836703Y-67194488D02*
X105836720Y-67139820D01*
X114343180Y-108328460D02*
X105826560Y-99811840D01*
X114335560Y-108328460D02*
X114343180Y-108328460D01*
X135315400Y-129308300D02*
X114335560Y-108328460D01*
X113911329Y-54622751D02*
X113911329Y-54623178D01*
X113799671Y-54622751D02*
X113911329Y-54622751D01*
X113799620Y-54622700D02*
X113799671Y-54622751D01*
X155115400Y-140296320D02*
X155115400Y-132649100D01*
X113891060Y-99230180D02*
X113911329Y-54623178D01*
X113911329Y-54623178D02*
X113911380Y-54510940D01*
X117187980Y-102527100D02*
X113891060Y-99230180D01*
X124993400Y-102527100D02*
X117187980Y-102527100D01*
X155115400Y-132649100D02*
X124993400Y-102527100D01*
X104244140Y-69598592D02*
X104244140Y-69598540D01*
X104188312Y-69598592D02*
X104244140Y-69598592D01*
X104188260Y-69598540D02*
X104188312Y-69598592D01*
X131355400Y-140296320D02*
X131355400Y-126993080D01*
X104216200Y-99847400D02*
X104244140Y-69598540D01*
X104244140Y-69598540D02*
X104244140Y-69598540D01*
X113753900Y-109385100D02*
X104216200Y-99847400D01*
X113747420Y-109385100D02*
X113753900Y-109385100D01*
X131355400Y-126993080D02*
X113747420Y-109385100D01*
X143235400Y-132412460D02*
X116931440Y-106108500D01*
X116931440Y-106108500D02*
X115750340Y-106108500D01*
X115750340Y-106108500D02*
X109044740Y-99402900D01*
X109044740Y-99402900D02*
X109044740Y-61963300D01*
X143235400Y-132412460D02*
X143235400Y-140296320D01*
X109044740Y-62054740D02*
X109044740Y-61963300D01*
X108993940Y-62054740D02*
X109044740Y-62054740D01*
X123748800Y-100441760D02*
X123748800Y-47650400D01*
X118618000Y-47713900D02*
X118618000Y-49352200D01*
X119303800Y-47028100D02*
X118618000Y-47713900D01*
X123126500Y-47028100D02*
X119303800Y-47028100D01*
X123748800Y-47650400D02*
X123126500Y-47028100D01*
X163035400Y-140296320D02*
X163035400Y-132596040D01*
X118618000Y-99781360D02*
X118618000Y-97612200D01*
X119278400Y-100441760D02*
X118618000Y-99781360D01*
X130881120Y-100441760D02*
X123748800Y-100441760D01*
X123748800Y-100441760D02*
X119278400Y-100441760D01*
X163035400Y-132596040D02*
X130881120Y-100441760D01*
X118755160Y-97749360D02*
X118618000Y-97612200D01*
X159075400Y-132915940D02*
X127632460Y-101473000D01*
X127632460Y-101473000D02*
X117729000Y-101473000D01*
X117729000Y-101473000D02*
X115473480Y-99217480D01*
X115473480Y-99217480D02*
X115473480Y-51732180D01*
X159075400Y-132915940D02*
X159075400Y-140296320D01*
X115473480Y-51800760D02*
X115473480Y-51732180D01*
X115420140Y-51800760D02*
X115473480Y-51800760D01*
X139275400Y-131398860D02*
X115077240Y-107200700D01*
X115077240Y-107200700D02*
X115074700Y-107200700D01*
X115074700Y-107200700D02*
X107449620Y-99575620D01*
X107449620Y-99575620D02*
X107449620Y-64419480D01*
X139275400Y-131398860D02*
X139275400Y-140296320D01*
X107449620Y-64513460D02*
X107449620Y-64419480D01*
X107429300Y-64513460D02*
X107449620Y-64513460D01*
X151155400Y-132712460D02*
X122201940Y-103759000D01*
X122201940Y-103759000D02*
X116753640Y-103759000D01*
X116753640Y-103759000D02*
X112268000Y-99273360D01*
X112268000Y-99273360D02*
X112268000Y-56883300D01*
X151155400Y-132712460D02*
X151155400Y-140296320D01*
X112268000Y-56941720D02*
X112268000Y-56883300D01*
X112262920Y-56941720D02*
X112268000Y-56941720D01*
X147195400Y-132796343D02*
X119415357Y-105016300D01*
X119415357Y-105016300D02*
X116329460Y-105016300D01*
X116329460Y-105016300D02*
X110642400Y-99329240D01*
X110642400Y-99329240D02*
X110642400Y-59451240D01*
X147195400Y-132796343D02*
X147195400Y-140296320D01*
X110642400Y-59596020D02*
X110642400Y-59451240D01*
X110586520Y-59596020D02*
X110642400Y-59596020D01*
X83835400Y-140296320D02*
X83835400Y-100015200D01*
X117795040Y-45557440D02*
X121142760Y-45552360D01*
X83400900Y-95135700D02*
X117795040Y-45557440D01*
X83388200Y-99568000D02*
X83400900Y-95135700D01*
X83835400Y-100015200D02*
X83388200Y-99568000D01*
M02*
