%FSLAX45Y45*%
G04 Gerber Fmt 4.5, Leading zero omitted, Abs format (unit mm)*
G04 Created by KiCad (PCBNEW 4.0.7) date 07/15/18 20:55:24*
%MOMM*%
%LPD*%
G01*
G04 APERTURE LIST*
%ADD10C,0.127000*%
%ADD11C,0.150000*%
%ADD12C,0.200000*%
%ADD13C,0.300000*%
G04 APERTURE END LIST*
D10*
D11*
X7614158Y-14453946D02*
G75*
G03X7714158Y-14553946I100000J0D01*
G01*
X16594150Y-14553946D02*
G75*
G03X16694150Y-14453946I0J100000D01*
G01*
X15758160Y-14553946D02*
X16594150Y-14553946D01*
X9030208Y-14553946D02*
X15654528Y-14553946D01*
X9030208Y-13618464D02*
X9030208Y-14553946D01*
X8936736Y-13618464D02*
X9030208Y-13618464D01*
X8936736Y-14553946D02*
X8936736Y-13618464D01*
X15758160Y-13624560D02*
X15758160Y-14553946D01*
X15654528Y-13624560D02*
X15758160Y-13624560D01*
X15654528Y-14553946D02*
X15654528Y-13624560D01*
X7614158Y-3804920D02*
X7614158Y-14453946D01*
X16694150Y-3804920D02*
X7614158Y-3804920D01*
X16694150Y-14453946D02*
X16694150Y-3804920D01*
X7714158Y-14553946D02*
X8936736Y-14553946D01*
D12*
X7938790Y-4133870D02*
X8258790Y-4453870D01*
X8258790Y-4133870D02*
X7938790Y-4453870D01*
X16055360Y-4133870D02*
X16375360Y-4453870D01*
X16375360Y-4133870D02*
X16055360Y-4453870D01*
D13*
X7878086Y-15027160D02*
X7878086Y-14727160D01*
X7949515Y-14727160D01*
X7992372Y-14741446D01*
X8020944Y-14770017D01*
X8035229Y-14798589D01*
X8049515Y-14855732D01*
X8049515Y-14898589D01*
X8035229Y-14955732D01*
X8020944Y-14984303D01*
X7992372Y-15012875D01*
X7949515Y-15027160D01*
X7878086Y-15027160D01*
X8178086Y-15027160D02*
X8178086Y-14827160D01*
X8178086Y-14884303D02*
X8192372Y-14855732D01*
X8206658Y-14841446D01*
X8235229Y-14827160D01*
X8263801Y-14827160D01*
X8363801Y-15027160D02*
X8363801Y-14827160D01*
X8363801Y-14727160D02*
X8349515Y-14741446D01*
X8363801Y-14755732D01*
X8378086Y-14741446D01*
X8363801Y-14727160D01*
X8363801Y-14755732D01*
X8549515Y-15027160D02*
X8520944Y-15012875D01*
X8506658Y-14984303D01*
X8506658Y-14727160D01*
X8706658Y-15027160D02*
X8678087Y-15012875D01*
X8663801Y-14984303D01*
X8663801Y-14727160D01*
X9049515Y-15027160D02*
X9049515Y-14727160D01*
X9149515Y-14941446D01*
X9249515Y-14727160D01*
X9249515Y-15027160D01*
X9520944Y-15027160D02*
X9520944Y-14870017D01*
X9506658Y-14841446D01*
X9478087Y-14827160D01*
X9420944Y-14827160D01*
X9392372Y-14841446D01*
X9520944Y-15012875D02*
X9492372Y-15027160D01*
X9420944Y-15027160D01*
X9392372Y-15012875D01*
X9378087Y-14984303D01*
X9378087Y-14955732D01*
X9392372Y-14927160D01*
X9420944Y-14912875D01*
X9492372Y-14912875D01*
X9520944Y-14898589D01*
X9663801Y-14827160D02*
X9663801Y-15127160D01*
X9663801Y-14841446D02*
X9692372Y-14827160D01*
X9749515Y-14827160D01*
X9778087Y-14841446D01*
X9792372Y-14855732D01*
X9806658Y-14884303D01*
X9806658Y-14970017D01*
X9792372Y-14998589D01*
X9778087Y-15012875D01*
X9749515Y-15027160D01*
X9692372Y-15027160D01*
X9663801Y-15012875D01*
X9935229Y-14998589D02*
X9949515Y-15012875D01*
X9935229Y-15027160D01*
X9920944Y-15012875D01*
X9935229Y-14998589D01*
X9935229Y-15027160D01*
X9935229Y-14841446D02*
X9949515Y-14855732D01*
X9935229Y-14870017D01*
X9920944Y-14855732D01*
X9935229Y-14841446D01*
X9935229Y-14870017D01*
X7286658Y-15361446D02*
X7606658Y-15681446D01*
X7606658Y-15361446D02*
X7286658Y-15681446D01*
X7849515Y-15357160D02*
X8035229Y-15357160D01*
X7935229Y-15471446D01*
X7978086Y-15471446D01*
X8006658Y-15485732D01*
X8020944Y-15500017D01*
X8035229Y-15528589D01*
X8035229Y-15600017D01*
X8020944Y-15628589D01*
X8006658Y-15642875D01*
X7978086Y-15657160D01*
X7892372Y-15657160D01*
X7863801Y-15642875D01*
X7849515Y-15628589D01*
X8163801Y-15628589D02*
X8178086Y-15642875D01*
X8163801Y-15657160D01*
X8149515Y-15642875D01*
X8163801Y-15628589D01*
X8163801Y-15657160D01*
X8292372Y-15385732D02*
X8306658Y-15371446D01*
X8335229Y-15357160D01*
X8406658Y-15357160D01*
X8435229Y-15371446D01*
X8449515Y-15385732D01*
X8463801Y-15414303D01*
X8463801Y-15442875D01*
X8449515Y-15485732D01*
X8278086Y-15657160D01*
X8463801Y-15657160D01*
X8649515Y-15357160D02*
X8678087Y-15357160D01*
X8706658Y-15371446D01*
X8720944Y-15385732D01*
X8735229Y-15414303D01*
X8749515Y-15471446D01*
X8749515Y-15542875D01*
X8735229Y-15600017D01*
X8720944Y-15628589D01*
X8706658Y-15642875D01*
X8678087Y-15657160D01*
X8649515Y-15657160D01*
X8620944Y-15642875D01*
X8606658Y-15628589D01*
X8592372Y-15600017D01*
X8578087Y-15542875D01*
X8578087Y-15471446D01*
X8592372Y-15414303D01*
X8606658Y-15385732D01*
X8620944Y-15371446D01*
X8649515Y-15357160D01*
X8878087Y-15657160D02*
X8878087Y-15457160D01*
X8878087Y-15485732D02*
X8892372Y-15471446D01*
X8920944Y-15457160D01*
X8963801Y-15457160D01*
X8992372Y-15471446D01*
X9006658Y-15500017D01*
X9006658Y-15657160D01*
X9006658Y-15500017D02*
X9020944Y-15471446D01*
X9049515Y-15457160D01*
X9092372Y-15457160D01*
X9120944Y-15471446D01*
X9135229Y-15500017D01*
X9135229Y-15657160D01*
X9278087Y-15657160D02*
X9278087Y-15457160D01*
X9278087Y-15485732D02*
X9292372Y-15471446D01*
X9320944Y-15457160D01*
X9363801Y-15457160D01*
X9392372Y-15471446D01*
X9406658Y-15500017D01*
X9406658Y-15657160D01*
X9406658Y-15500017D02*
X9420944Y-15471446D01*
X9449515Y-15457160D01*
X9492372Y-15457160D01*
X9520944Y-15471446D01*
X9535229Y-15500017D01*
X9535229Y-15657160D01*
X10120944Y-15342875D02*
X9863801Y-15728589D01*
X10506658Y-15357160D02*
X10535229Y-15357160D01*
X10563801Y-15371446D01*
X10578086Y-15385732D01*
X10592372Y-15414303D01*
X10606658Y-15471446D01*
X10606658Y-15542875D01*
X10592372Y-15600017D01*
X10578086Y-15628589D01*
X10563801Y-15642875D01*
X10535229Y-15657160D01*
X10506658Y-15657160D01*
X10478086Y-15642875D01*
X10463801Y-15628589D01*
X10449515Y-15600017D01*
X10435229Y-15542875D01*
X10435229Y-15471446D01*
X10449515Y-15414303D01*
X10463801Y-15385732D01*
X10478086Y-15371446D01*
X10506658Y-15357160D01*
X10735229Y-15628589D02*
X10749515Y-15642875D01*
X10735229Y-15657160D01*
X10720944Y-15642875D01*
X10735229Y-15628589D01*
X10735229Y-15657160D01*
X11035229Y-15657160D02*
X10863801Y-15657160D01*
X10949515Y-15657160D02*
X10949515Y-15357160D01*
X10920944Y-15400017D01*
X10892372Y-15428589D01*
X10863801Y-15442875D01*
X11149515Y-15385732D02*
X11163801Y-15371446D01*
X11192372Y-15357160D01*
X11263801Y-15357160D01*
X11292372Y-15371446D01*
X11306658Y-15385732D01*
X11320943Y-15414303D01*
X11320943Y-15442875D01*
X11306658Y-15485732D01*
X11135229Y-15657160D01*
X11320943Y-15657160D01*
X11578086Y-15357160D02*
X11520943Y-15357160D01*
X11492372Y-15371446D01*
X11478086Y-15385732D01*
X11449515Y-15428589D01*
X11435229Y-15485732D01*
X11435229Y-15600017D01*
X11449515Y-15628589D01*
X11463801Y-15642875D01*
X11492372Y-15657160D01*
X11549515Y-15657160D01*
X11578086Y-15642875D01*
X11592372Y-15628589D01*
X11606658Y-15600017D01*
X11606658Y-15528589D01*
X11592372Y-15500017D01*
X11578086Y-15485732D01*
X11549515Y-15471446D01*
X11492372Y-15471446D01*
X11463801Y-15485732D01*
X11449515Y-15500017D01*
X11435229Y-15528589D01*
X11720944Y-15357160D02*
X11720944Y-15414303D01*
X11835229Y-15357160D02*
X11835229Y-15414303D01*
X12278086Y-15771446D02*
X12263801Y-15757160D01*
X12235229Y-15714303D01*
X12220943Y-15685732D01*
X12206658Y-15642875D01*
X12192372Y-15571446D01*
X12192372Y-15514303D01*
X12206658Y-15442875D01*
X12220943Y-15400017D01*
X12235229Y-15371446D01*
X12263801Y-15328589D01*
X12278086Y-15314303D01*
X12378086Y-15385732D02*
X12392372Y-15371446D01*
X12420943Y-15357160D01*
X12492372Y-15357160D01*
X12520943Y-15371446D01*
X12535229Y-15385732D01*
X12549515Y-15414303D01*
X12549515Y-15442875D01*
X12535229Y-15485732D01*
X12363801Y-15657160D01*
X12549515Y-15657160D01*
X12906658Y-15657160D02*
X12906658Y-15357160D01*
X13035229Y-15657160D02*
X13035229Y-15500017D01*
X13020943Y-15471446D01*
X12992372Y-15457160D01*
X12949515Y-15457160D01*
X12920943Y-15471446D01*
X12906658Y-15485732D01*
X13220943Y-15657160D02*
X13192372Y-15642875D01*
X13178086Y-15628589D01*
X13163801Y-15600017D01*
X13163801Y-15514303D01*
X13178086Y-15485732D01*
X13192372Y-15471446D01*
X13220943Y-15457160D01*
X13263801Y-15457160D01*
X13292372Y-15471446D01*
X13306658Y-15485732D01*
X13320943Y-15514303D01*
X13320943Y-15600017D01*
X13306658Y-15628589D01*
X13292372Y-15642875D01*
X13263801Y-15657160D01*
X13220943Y-15657160D01*
X13492372Y-15657160D02*
X13463801Y-15642875D01*
X13449515Y-15614303D01*
X13449515Y-15357160D01*
X13720944Y-15642875D02*
X13692372Y-15657160D01*
X13635229Y-15657160D01*
X13606658Y-15642875D01*
X13592372Y-15614303D01*
X13592372Y-15500017D01*
X13606658Y-15471446D01*
X13635229Y-15457160D01*
X13692372Y-15457160D01*
X13720944Y-15471446D01*
X13735229Y-15500017D01*
X13735229Y-15528589D01*
X13592372Y-15557160D01*
X13849515Y-15642875D02*
X13878086Y-15657160D01*
X13935229Y-15657160D01*
X13963801Y-15642875D01*
X13978086Y-15614303D01*
X13978086Y-15600017D01*
X13963801Y-15571446D01*
X13935229Y-15557160D01*
X13892372Y-15557160D01*
X13863801Y-15542875D01*
X13849515Y-15514303D01*
X13849515Y-15500017D01*
X13863801Y-15471446D01*
X13892372Y-15457160D01*
X13935229Y-15457160D01*
X13963801Y-15471446D01*
X14078086Y-15771446D02*
X14092372Y-15757160D01*
X14120944Y-15714303D01*
X14135229Y-15685732D01*
X14149515Y-15642875D01*
X14163801Y-15571446D01*
X14163801Y-15514303D01*
X14149515Y-15442875D01*
X14135229Y-15400017D01*
X14120944Y-15371446D01*
X14092372Y-15328589D01*
X14078086Y-15314303D01*
X14620944Y-15771446D02*
X14606658Y-15757160D01*
X14578086Y-15714303D01*
X14563801Y-15685732D01*
X14549515Y-15642875D01*
X14535229Y-15571446D01*
X14535229Y-15514303D01*
X14549515Y-15442875D01*
X14563801Y-15400017D01*
X14578086Y-15371446D01*
X14606658Y-15328589D01*
X14620944Y-15314303D01*
X14735229Y-15457160D02*
X14735229Y-15657160D01*
X14735229Y-15485732D02*
X14749515Y-15471446D01*
X14778086Y-15457160D01*
X14820944Y-15457160D01*
X14849515Y-15471446D01*
X14863801Y-15500017D01*
X14863801Y-15657160D01*
X15049515Y-15657160D02*
X15020944Y-15642875D01*
X15006658Y-15628589D01*
X14992372Y-15600017D01*
X14992372Y-15514303D01*
X15006658Y-15485732D01*
X15020944Y-15471446D01*
X15049515Y-15457160D01*
X15092372Y-15457160D01*
X15120944Y-15471446D01*
X15135229Y-15485732D01*
X15149515Y-15514303D01*
X15149515Y-15600017D01*
X15135229Y-15628589D01*
X15120944Y-15642875D01*
X15092372Y-15657160D01*
X15049515Y-15657160D01*
X15235229Y-15457160D02*
X15349515Y-15457160D01*
X15278086Y-15357160D02*
X15278086Y-15614303D01*
X15292372Y-15642875D01*
X15320944Y-15657160D01*
X15349515Y-15657160D01*
X15678086Y-15457160D02*
X15678086Y-15757160D01*
X15678086Y-15471446D02*
X15706658Y-15457160D01*
X15763801Y-15457160D01*
X15792372Y-15471446D01*
X15806658Y-15485732D01*
X15820944Y-15514303D01*
X15820944Y-15600017D01*
X15806658Y-15628589D01*
X15792372Y-15642875D01*
X15763801Y-15657160D01*
X15706658Y-15657160D01*
X15678086Y-15642875D01*
X15992372Y-15657160D02*
X15963801Y-15642875D01*
X15949515Y-15614303D01*
X15949515Y-15357160D01*
X16235229Y-15657160D02*
X16235229Y-15500017D01*
X16220944Y-15471446D01*
X16192372Y-15457160D01*
X16135229Y-15457160D01*
X16106658Y-15471446D01*
X16235229Y-15642875D02*
X16206658Y-15657160D01*
X16135229Y-15657160D01*
X16106658Y-15642875D01*
X16092372Y-15614303D01*
X16092372Y-15585732D01*
X16106658Y-15557160D01*
X16135229Y-15542875D01*
X16206658Y-15542875D01*
X16235229Y-15528589D01*
X16335229Y-15457160D02*
X16449515Y-15457160D01*
X16378087Y-15357160D02*
X16378087Y-15614303D01*
X16392372Y-15642875D01*
X16420944Y-15657160D01*
X16449515Y-15657160D01*
X16663801Y-15642875D02*
X16635229Y-15657160D01*
X16578087Y-15657160D01*
X16549515Y-15642875D01*
X16535229Y-15614303D01*
X16535229Y-15500017D01*
X16549515Y-15471446D01*
X16578087Y-15457160D01*
X16635229Y-15457160D01*
X16663801Y-15471446D01*
X16678087Y-15500017D01*
X16678087Y-15528589D01*
X16535229Y-15557160D01*
X16935230Y-15657160D02*
X16935230Y-15357160D01*
X16935230Y-15642875D02*
X16906658Y-15657160D01*
X16849515Y-15657160D01*
X16820944Y-15642875D01*
X16806658Y-15628589D01*
X16792372Y-15600017D01*
X16792372Y-15514303D01*
X16806658Y-15485732D01*
X16820944Y-15471446D01*
X16849515Y-15457160D01*
X16906658Y-15457160D01*
X16935230Y-15471446D01*
X17049515Y-15771446D02*
X17063801Y-15757160D01*
X17092372Y-15714303D01*
X17106658Y-15685732D01*
X17120944Y-15642875D01*
X17135230Y-15571446D01*
X17135230Y-15514303D01*
X17120944Y-15442875D01*
X17106658Y-15400017D01*
X17092372Y-15371446D01*
X17063801Y-15328589D01*
X17049515Y-15314303D01*
M02*
