G04 #@! TF.FileFunction,Soldermask,Top*
%FSLAX46Y46*%
G04 Gerber Fmt 4.6, Leading zero omitted, Abs format (unit mm)*
G04 Created by KiCad (PCBNEW 4.0.7) date 07/15/18 20:55:20*
%MOMM*%
%LPD*%
G01*
G04 APERTURE LIST*
%ADD10C,0.100000*%
%ADD11R,2.800000X9.200000*%
%ADD12R,2.100000X2.100000*%
%ADD13O,2.100000X2.100000*%
%ADD14C,3.600000*%
G04 APERTURE END LIST*
D10*
D11*
X79875400Y-140296320D03*
X83835400Y-140296320D03*
X87795400Y-140296320D03*
X91755400Y-140296320D03*
X95715400Y-140296320D03*
X99675400Y-140296320D03*
X103635400Y-140296320D03*
X107595400Y-140296320D03*
X111555400Y-140296320D03*
X115515400Y-140296320D03*
X119475400Y-140296320D03*
X123435400Y-140296320D03*
X127395400Y-140296320D03*
X135315400Y-140296320D03*
X155115400Y-140296320D03*
X131355400Y-140296320D03*
X143235400Y-140296320D03*
X163035400Y-140296320D03*
X159075400Y-140296320D03*
X139275400Y-140296320D03*
X151155400Y-140296320D03*
X147195400Y-140296320D03*
D12*
X118618000Y-49352200D03*
D13*
X121158000Y-49352200D03*
X118618000Y-51892200D03*
X121158000Y-51892200D03*
X118618000Y-54432200D03*
X121158000Y-54432200D03*
X118618000Y-56972200D03*
X121158000Y-56972200D03*
X118618000Y-59512200D03*
X121158000Y-59512200D03*
X118618000Y-62052200D03*
X121158000Y-62052200D03*
X118618000Y-64592200D03*
X121158000Y-64592200D03*
X118618000Y-67132200D03*
X121158000Y-67132200D03*
X118618000Y-69672200D03*
X121158000Y-69672200D03*
X118618000Y-72212200D03*
X121158000Y-72212200D03*
X118618000Y-74752200D03*
X121158000Y-74752200D03*
X118618000Y-77292200D03*
X121158000Y-77292200D03*
X118618000Y-79832200D03*
X121158000Y-79832200D03*
X118618000Y-82372200D03*
X121158000Y-82372200D03*
X118618000Y-84912200D03*
X121158000Y-84912200D03*
X118618000Y-87452200D03*
X121158000Y-87452200D03*
X118618000Y-89992200D03*
X121158000Y-89992200D03*
X118618000Y-92532200D03*
X121158000Y-92532200D03*
X118618000Y-95072200D03*
X121158000Y-95072200D03*
X118618000Y-97612200D03*
X121158000Y-97612200D03*
D14*
X80987900Y-42938700D03*
X162153600Y-42938700D03*
M02*
