G04 #@! TF.FileFunction,Legend,Top*
%FSLAX46Y46*%
G04 Gerber Fmt 4.6, Leading zero omitted, Abs format (unit mm)*
G04 Created by KiCad (PCBNEW 4.0.7) date 07/15/18 20:55:20*
%MOMM*%
%LPD*%
G01*
G04 APERTURE LIST*
%ADD10C,0.100000*%
%ADD11C,0.300000*%
%ADD12C,0.120000*%
%ADD13C,0.150000*%
G04 APERTURE END LIST*
D10*
D11*
X91519142Y-39559571D02*
X92019142Y-41059571D01*
X92519142Y-39559571D01*
X93019142Y-41059571D02*
X93019142Y-39559571D01*
X94590571Y-40916714D02*
X94519142Y-40988143D01*
X94304856Y-41059571D01*
X94161999Y-41059571D01*
X93947714Y-40988143D01*
X93804856Y-40845286D01*
X93733428Y-40702429D01*
X93661999Y-40416714D01*
X93661999Y-40202429D01*
X93733428Y-39916714D01*
X93804856Y-39773857D01*
X93947714Y-39631000D01*
X94161999Y-39559571D01*
X94304856Y-39559571D01*
X94519142Y-39631000D01*
X94590571Y-39702429D01*
X95233428Y-40488143D02*
X96376285Y-40488143D01*
X97019142Y-39702429D02*
X97090571Y-39631000D01*
X97233428Y-39559571D01*
X97590571Y-39559571D01*
X97733428Y-39631000D01*
X97804857Y-39702429D01*
X97876285Y-39845286D01*
X97876285Y-39988143D01*
X97804857Y-40202429D01*
X96947714Y-41059571D01*
X97876285Y-41059571D01*
X98804856Y-39559571D02*
X98947713Y-39559571D01*
X99090570Y-39631000D01*
X99161999Y-39702429D01*
X99233428Y-39845286D01*
X99304856Y-40131000D01*
X99304856Y-40488143D01*
X99233428Y-40773857D01*
X99161999Y-40916714D01*
X99090570Y-40988143D01*
X98947713Y-41059571D01*
X98804856Y-41059571D01*
X98661999Y-40988143D01*
X98590570Y-40916714D01*
X98519142Y-40773857D01*
X98447713Y-40488143D01*
X98447713Y-40131000D01*
X98519142Y-39845286D01*
X98590570Y-39702429D01*
X98661999Y-39631000D01*
X98804856Y-39559571D01*
X101661998Y-40988143D02*
X101519141Y-41059571D01*
X101233427Y-41059571D01*
X101090570Y-40988143D01*
X101019141Y-40845286D01*
X101019141Y-40273857D01*
X101090570Y-40131000D01*
X101233427Y-40059571D01*
X101519141Y-40059571D01*
X101661998Y-40131000D01*
X101733427Y-40273857D01*
X101733427Y-40416714D01*
X101019141Y-40559571D01*
X102233427Y-41059571D02*
X103019141Y-40059571D01*
X102233427Y-40059571D02*
X103019141Y-41059571D01*
X103590570Y-40059571D02*
X103590570Y-41559571D01*
X103590570Y-40131000D02*
X103733427Y-40059571D01*
X104019141Y-40059571D01*
X104161998Y-40131000D01*
X104233427Y-40202429D01*
X104304856Y-40345286D01*
X104304856Y-40773857D01*
X104233427Y-40916714D01*
X104161998Y-40988143D01*
X104019141Y-41059571D01*
X103733427Y-41059571D01*
X103590570Y-40988143D01*
X105590570Y-41059571D02*
X105590570Y-40273857D01*
X105519141Y-40131000D01*
X105376284Y-40059571D01*
X105090570Y-40059571D01*
X104947713Y-40131000D01*
X105590570Y-40988143D02*
X105447713Y-41059571D01*
X105090570Y-41059571D01*
X104947713Y-40988143D01*
X104876284Y-40845286D01*
X104876284Y-40702429D01*
X104947713Y-40559571D01*
X105090570Y-40488143D01*
X105447713Y-40488143D01*
X105590570Y-40416714D01*
X106304856Y-40059571D02*
X106304856Y-41059571D01*
X106304856Y-40202429D02*
X106376284Y-40131000D01*
X106519142Y-40059571D01*
X106733427Y-40059571D01*
X106876284Y-40131000D01*
X106947713Y-40273857D01*
X106947713Y-41059571D01*
X107590570Y-40988143D02*
X107733427Y-41059571D01*
X108019142Y-41059571D01*
X108161999Y-40988143D01*
X108233427Y-40845286D01*
X108233427Y-40773857D01*
X108161999Y-40631000D01*
X108019142Y-40559571D01*
X107804856Y-40559571D01*
X107661999Y-40488143D01*
X107590570Y-40345286D01*
X107590570Y-40273857D01*
X107661999Y-40131000D01*
X107804856Y-40059571D01*
X108019142Y-40059571D01*
X108161999Y-40131000D01*
X108876285Y-41059571D02*
X108876285Y-40059571D01*
X108876285Y-39559571D02*
X108804856Y-39631000D01*
X108876285Y-39702429D01*
X108947713Y-39631000D01*
X108876285Y-39559571D01*
X108876285Y-39702429D01*
X109804857Y-41059571D02*
X109661999Y-40988143D01*
X109590571Y-40916714D01*
X109519142Y-40773857D01*
X109519142Y-40345286D01*
X109590571Y-40202429D01*
X109661999Y-40131000D01*
X109804857Y-40059571D01*
X110019142Y-40059571D01*
X110161999Y-40131000D01*
X110233428Y-40202429D01*
X110304857Y-40345286D01*
X110304857Y-40773857D01*
X110233428Y-40916714D01*
X110161999Y-40988143D01*
X110019142Y-41059571D01*
X109804857Y-41059571D01*
X110947714Y-40059571D02*
X110947714Y-41059571D01*
X110947714Y-40202429D02*
X111019142Y-40131000D01*
X111162000Y-40059571D01*
X111376285Y-40059571D01*
X111519142Y-40131000D01*
X111590571Y-40273857D01*
X111590571Y-41059571D01*
X113447714Y-40059571D02*
X113447714Y-41559571D01*
X113447714Y-40131000D02*
X113590571Y-40059571D01*
X113876285Y-40059571D01*
X114019142Y-40131000D01*
X114090571Y-40202429D01*
X114162000Y-40345286D01*
X114162000Y-40773857D01*
X114090571Y-40916714D01*
X114019142Y-40988143D01*
X113876285Y-41059571D01*
X113590571Y-41059571D01*
X113447714Y-40988143D01*
X115019143Y-41059571D02*
X114876285Y-40988143D01*
X114804857Y-40916714D01*
X114733428Y-40773857D01*
X114733428Y-40345286D01*
X114804857Y-40202429D01*
X114876285Y-40131000D01*
X115019143Y-40059571D01*
X115233428Y-40059571D01*
X115376285Y-40131000D01*
X115447714Y-40202429D01*
X115519143Y-40345286D01*
X115519143Y-40773857D01*
X115447714Y-40916714D01*
X115376285Y-40988143D01*
X115233428Y-41059571D01*
X115019143Y-41059571D01*
X116162000Y-41059571D02*
X116162000Y-40059571D01*
X116162000Y-40345286D02*
X116233428Y-40202429D01*
X116304857Y-40131000D01*
X116447714Y-40059571D01*
X116590571Y-40059571D01*
X116876285Y-40059571D02*
X117447714Y-40059571D01*
X117090571Y-39559571D02*
X117090571Y-40845286D01*
X117161999Y-40988143D01*
X117304857Y-41059571D01*
X117447714Y-41059571D01*
X119090571Y-41059571D02*
X119090571Y-39559571D01*
X119090571Y-40131000D02*
X119233428Y-40059571D01*
X119519142Y-40059571D01*
X119661999Y-40131000D01*
X119733428Y-40202429D01*
X119804857Y-40345286D01*
X119804857Y-40773857D01*
X119733428Y-40916714D01*
X119661999Y-40988143D01*
X119519142Y-41059571D01*
X119233428Y-41059571D01*
X119090571Y-40988143D01*
X120447714Y-41059571D02*
X120447714Y-40059571D01*
X120447714Y-40345286D02*
X120519142Y-40202429D01*
X120590571Y-40131000D01*
X120733428Y-40059571D01*
X120876285Y-40059571D01*
X121947713Y-40988143D02*
X121804856Y-41059571D01*
X121519142Y-41059571D01*
X121376285Y-40988143D01*
X121304856Y-40845286D01*
X121304856Y-40273857D01*
X121376285Y-40131000D01*
X121519142Y-40059571D01*
X121804856Y-40059571D01*
X121947713Y-40131000D01*
X122019142Y-40273857D01*
X122019142Y-40416714D01*
X121304856Y-40559571D01*
X123304856Y-41059571D02*
X123304856Y-40273857D01*
X123233427Y-40131000D01*
X123090570Y-40059571D01*
X122804856Y-40059571D01*
X122661999Y-40131000D01*
X123304856Y-40988143D02*
X123161999Y-41059571D01*
X122804856Y-41059571D01*
X122661999Y-40988143D01*
X122590570Y-40845286D01*
X122590570Y-40702429D01*
X122661999Y-40559571D01*
X122804856Y-40488143D01*
X123161999Y-40488143D01*
X123304856Y-40416714D01*
X124019142Y-41059571D02*
X124019142Y-39559571D01*
X124161999Y-40488143D02*
X124590570Y-41059571D01*
X124590570Y-40059571D02*
X124019142Y-40631000D01*
X126590571Y-41059571D02*
X126447713Y-40988143D01*
X126376285Y-40916714D01*
X126304856Y-40773857D01*
X126304856Y-40345286D01*
X126376285Y-40202429D01*
X126447713Y-40131000D01*
X126590571Y-40059571D01*
X126804856Y-40059571D01*
X126947713Y-40131000D01*
X127019142Y-40202429D01*
X127090571Y-40345286D01*
X127090571Y-40773857D01*
X127019142Y-40916714D01*
X126947713Y-40988143D01*
X126804856Y-41059571D01*
X126590571Y-41059571D01*
X128376285Y-40059571D02*
X128376285Y-41059571D01*
X127733428Y-40059571D02*
X127733428Y-40845286D01*
X127804856Y-40988143D01*
X127947714Y-41059571D01*
X128161999Y-41059571D01*
X128304856Y-40988143D01*
X128376285Y-40916714D01*
X128876285Y-40059571D02*
X129447714Y-40059571D01*
X129090571Y-39559571D02*
X129090571Y-40845286D01*
X129161999Y-40988143D01*
X129304857Y-41059571D01*
X129447714Y-41059571D01*
X131733428Y-40988143D02*
X131590571Y-41059571D01*
X131304857Y-41059571D01*
X131161999Y-40988143D01*
X131090571Y-40916714D01*
X131019142Y-40773857D01*
X131019142Y-40345286D01*
X131090571Y-40202429D01*
X131161999Y-40131000D01*
X131304857Y-40059571D01*
X131590571Y-40059571D01*
X131733428Y-40131000D01*
X133019142Y-41059571D02*
X133019142Y-40273857D01*
X132947713Y-40131000D01*
X132804856Y-40059571D01*
X132519142Y-40059571D01*
X132376285Y-40131000D01*
X133019142Y-40988143D02*
X132876285Y-41059571D01*
X132519142Y-41059571D01*
X132376285Y-40988143D01*
X132304856Y-40845286D01*
X132304856Y-40702429D01*
X132376285Y-40559571D01*
X132519142Y-40488143D01*
X132876285Y-40488143D01*
X133019142Y-40416714D01*
X133733428Y-41059571D02*
X133733428Y-40059571D01*
X133733428Y-40345286D02*
X133804856Y-40202429D01*
X133876285Y-40131000D01*
X134019142Y-40059571D01*
X134161999Y-40059571D01*
X135304856Y-41059571D02*
X135304856Y-39559571D01*
X135304856Y-40988143D02*
X135161999Y-41059571D01*
X134876285Y-41059571D01*
X134733427Y-40988143D01*
X134661999Y-40916714D01*
X134590570Y-40773857D01*
X134590570Y-40345286D01*
X134661999Y-40202429D01*
X134733427Y-40131000D01*
X134876285Y-40059571D01*
X135161999Y-40059571D01*
X135304856Y-40131000D01*
X137161999Y-41059571D02*
X137161999Y-39559571D01*
X137161999Y-40131000D02*
X137304856Y-40059571D01*
X137590570Y-40059571D01*
X137733427Y-40131000D01*
X137804856Y-40202429D01*
X137876285Y-40345286D01*
X137876285Y-40773857D01*
X137804856Y-40916714D01*
X137733427Y-40988143D01*
X137590570Y-41059571D01*
X137304856Y-41059571D01*
X137161999Y-40988143D01*
X138376285Y-40059571D02*
X138733428Y-41059571D01*
X139090570Y-40059571D02*
X138733428Y-41059571D01*
X138590570Y-41416714D01*
X138519142Y-41488143D01*
X138376285Y-41559571D01*
X140804856Y-41059571D02*
X140804856Y-39559571D01*
X140804856Y-40273857D02*
X141661999Y-40273857D01*
X141661999Y-41059571D02*
X141661999Y-39559571D01*
X143019142Y-41059571D02*
X143019142Y-40273857D01*
X142947713Y-40131000D01*
X142804856Y-40059571D01*
X142519142Y-40059571D01*
X142376285Y-40131000D01*
X143019142Y-40988143D02*
X142876285Y-41059571D01*
X142519142Y-41059571D01*
X142376285Y-40988143D01*
X142304856Y-40845286D01*
X142304856Y-40702429D01*
X142376285Y-40559571D01*
X142519142Y-40488143D01*
X142876285Y-40488143D01*
X143019142Y-40416714D01*
X143733428Y-40059571D02*
X143733428Y-41059571D01*
X143733428Y-40202429D02*
X143804856Y-40131000D01*
X143947714Y-40059571D01*
X144161999Y-40059571D01*
X144304856Y-40131000D01*
X144376285Y-40273857D01*
X144376285Y-41059571D01*
X145019142Y-40988143D02*
X145161999Y-41059571D01*
X145447714Y-41059571D01*
X145590571Y-40988143D01*
X145661999Y-40845286D01*
X145661999Y-40773857D01*
X145590571Y-40631000D01*
X145447714Y-40559571D01*
X145233428Y-40559571D01*
X145090571Y-40488143D01*
X145019142Y-40345286D01*
X145019142Y-40273857D01*
X145090571Y-40131000D01*
X145233428Y-40059571D01*
X145447714Y-40059571D01*
X145590571Y-40131000D01*
X148162000Y-41059571D02*
X147447714Y-41059571D01*
X147447714Y-39559571D01*
X148662000Y-41059571D02*
X148662000Y-40059571D01*
X148662000Y-39559571D02*
X148590571Y-39631000D01*
X148662000Y-39702429D01*
X148733428Y-39631000D01*
X148662000Y-39559571D01*
X148662000Y-39702429D01*
X149304857Y-40988143D02*
X149447714Y-41059571D01*
X149733429Y-41059571D01*
X149876286Y-40988143D01*
X149947714Y-40845286D01*
X149947714Y-40773857D01*
X149876286Y-40631000D01*
X149733429Y-40559571D01*
X149519143Y-40559571D01*
X149376286Y-40488143D01*
X149304857Y-40345286D01*
X149304857Y-40273857D01*
X149376286Y-40131000D01*
X149519143Y-40059571D01*
X149733429Y-40059571D01*
X149876286Y-40131000D01*
X150519143Y-40988143D02*
X150662000Y-41059571D01*
X150947715Y-41059571D01*
X151090572Y-40988143D01*
X151162000Y-40845286D01*
X151162000Y-40773857D01*
X151090572Y-40631000D01*
X150947715Y-40559571D01*
X150733429Y-40559571D01*
X150590572Y-40488143D01*
X150519143Y-40345286D01*
X150519143Y-40273857D01*
X150590572Y-40131000D01*
X150733429Y-40059571D01*
X150947715Y-40059571D01*
X151090572Y-40131000D01*
X112554856Y-43609571D02*
X112554856Y-42109571D01*
X112554856Y-42823857D02*
X113411999Y-42823857D01*
X113411999Y-43609571D02*
X113411999Y-42109571D01*
X114769142Y-43609571D02*
X114769142Y-42823857D01*
X114697713Y-42681000D01*
X114554856Y-42609571D01*
X114269142Y-42609571D01*
X114126285Y-42681000D01*
X114769142Y-43538143D02*
X114626285Y-43609571D01*
X114269142Y-43609571D01*
X114126285Y-43538143D01*
X114054856Y-43395286D01*
X114054856Y-43252429D01*
X114126285Y-43109571D01*
X114269142Y-43038143D01*
X114626285Y-43038143D01*
X114769142Y-42966714D01*
X115483428Y-42609571D02*
X115483428Y-43609571D01*
X115483428Y-42752429D02*
X115554856Y-42681000D01*
X115697714Y-42609571D01*
X115911999Y-42609571D01*
X116054856Y-42681000D01*
X116126285Y-42823857D01*
X116126285Y-43609571D01*
X116769142Y-43538143D02*
X116911999Y-43609571D01*
X117197714Y-43609571D01*
X117340571Y-43538143D01*
X117411999Y-43395286D01*
X117411999Y-43323857D01*
X117340571Y-43181000D01*
X117197714Y-43109571D01*
X116983428Y-43109571D01*
X116840571Y-43038143D01*
X116769142Y-42895286D01*
X116769142Y-42823857D01*
X116840571Y-42681000D01*
X116983428Y-42609571D01*
X117197714Y-42609571D01*
X117340571Y-42681000D01*
X118983428Y-42895286D02*
X118912000Y-42823857D01*
X118769143Y-42752429D01*
X118626285Y-42752429D01*
X118483428Y-42823857D01*
X118412000Y-42895286D01*
X118340571Y-43038143D01*
X118340571Y-43181000D01*
X118412000Y-43323857D01*
X118483428Y-43395286D01*
X118626285Y-43466714D01*
X118769143Y-43466714D01*
X118912000Y-43395286D01*
X118983428Y-43323857D01*
X118983428Y-42752429D02*
X118983428Y-43323857D01*
X119054857Y-43395286D01*
X119126285Y-43395286D01*
X119269143Y-43323857D01*
X119340571Y-43181000D01*
X119340571Y-42823857D01*
X119197714Y-42609571D01*
X118983428Y-42466714D01*
X118697714Y-42395286D01*
X118412000Y-42466714D01*
X118197714Y-42609571D01*
X118054857Y-42823857D01*
X117983428Y-43109571D01*
X118054857Y-43395286D01*
X118197714Y-43609571D01*
X118412000Y-43752429D01*
X118697714Y-43823857D01*
X118983428Y-43752429D01*
X119197714Y-43609571D01*
X120697714Y-43609571D02*
X119983428Y-43609571D01*
X119983428Y-42109571D01*
X121197714Y-43609571D02*
X121197714Y-42609571D01*
X121197714Y-42109571D02*
X121126285Y-42181000D01*
X121197714Y-42252429D01*
X121269142Y-42181000D01*
X121197714Y-42109571D01*
X121197714Y-42252429D01*
X121840571Y-43538143D02*
X121983428Y-43609571D01*
X122269143Y-43609571D01*
X122412000Y-43538143D01*
X122483428Y-43395286D01*
X122483428Y-43323857D01*
X122412000Y-43181000D01*
X122269143Y-43109571D01*
X122054857Y-43109571D01*
X121912000Y-43038143D01*
X121840571Y-42895286D01*
X121840571Y-42823857D01*
X121912000Y-42681000D01*
X122054857Y-42609571D01*
X122269143Y-42609571D01*
X122412000Y-42681000D01*
X123054857Y-43538143D02*
X123197714Y-43609571D01*
X123483429Y-43609571D01*
X123626286Y-43538143D01*
X123697714Y-43395286D01*
X123697714Y-43323857D01*
X123626286Y-43181000D01*
X123483429Y-43109571D01*
X123269143Y-43109571D01*
X123126286Y-43038143D01*
X123054857Y-42895286D01*
X123054857Y-42823857D01*
X123126286Y-42681000D01*
X123269143Y-42609571D01*
X123483429Y-42609571D01*
X123626286Y-42681000D01*
X124340572Y-43466714D02*
X124412000Y-43538143D01*
X124340572Y-43609571D01*
X124269143Y-43538143D01*
X124340572Y-43466714D01*
X124340572Y-43609571D01*
X125054858Y-42609571D02*
X125054858Y-44109571D01*
X125054858Y-42681000D02*
X125197715Y-42609571D01*
X125483429Y-42609571D01*
X125626286Y-42681000D01*
X125697715Y-42752429D01*
X125769144Y-42895286D01*
X125769144Y-43323857D01*
X125697715Y-43466714D01*
X125626286Y-43538143D01*
X125483429Y-43609571D01*
X125197715Y-43609571D01*
X125054858Y-43538143D01*
X126412001Y-42609571D02*
X126412001Y-44109571D01*
X126412001Y-42681000D02*
X126554858Y-42609571D01*
X126840572Y-42609571D01*
X126983429Y-42681000D01*
X127054858Y-42752429D01*
X127126287Y-42895286D01*
X127126287Y-43323857D01*
X127054858Y-43466714D01*
X126983429Y-43538143D01*
X126840572Y-43609571D01*
X126554858Y-43609571D01*
X126412001Y-43538143D01*
X127769144Y-43466714D02*
X127840572Y-43538143D01*
X127769144Y-43609571D01*
X127697715Y-43538143D01*
X127769144Y-43466714D01*
X127769144Y-43609571D01*
X128412001Y-43538143D02*
X128554858Y-43609571D01*
X128840573Y-43609571D01*
X128983430Y-43538143D01*
X129054858Y-43395286D01*
X129054858Y-43323857D01*
X128983430Y-43181000D01*
X128840573Y-43109571D01*
X128626287Y-43109571D01*
X128483430Y-43038143D01*
X128412001Y-42895286D01*
X128412001Y-42823857D01*
X128483430Y-42681000D01*
X128626287Y-42609571D01*
X128840573Y-42609571D01*
X128983430Y-42681000D01*
X130269144Y-43538143D02*
X130126287Y-43609571D01*
X129840573Y-43609571D01*
X129697716Y-43538143D01*
X129626287Y-43395286D01*
X129626287Y-42823857D01*
X129697716Y-42681000D01*
X129840573Y-42609571D01*
X130126287Y-42609571D01*
X130269144Y-42681000D01*
X130340573Y-42823857D01*
X130340573Y-42966714D01*
X129626287Y-43109571D01*
X142713574Y-54227571D02*
X142213574Y-53513286D01*
X141856431Y-54227571D02*
X141856431Y-52727571D01*
X142427859Y-52727571D01*
X142570717Y-52799000D01*
X142642145Y-52870429D01*
X142713574Y-53013286D01*
X142713574Y-53227571D01*
X142642145Y-53370429D01*
X142570717Y-53441857D01*
X142427859Y-53513286D01*
X141856431Y-53513286D01*
X143285002Y-53799000D02*
X143999288Y-53799000D01*
X143142145Y-54227571D02*
X143642145Y-52727571D01*
X144142145Y-54227571D01*
X144642145Y-54227571D02*
X144642145Y-52727571D01*
X145142145Y-53799000D01*
X145642145Y-52727571D01*
X145642145Y-54227571D01*
X147142145Y-54227571D02*
X146285002Y-54227571D01*
X146713574Y-54227571D02*
X146713574Y-52727571D01*
X146570717Y-52941857D01*
X146427859Y-53084714D01*
X146285002Y-53156143D01*
X141499288Y-52469000D02*
X147427859Y-52469000D01*
X148927859Y-53441857D02*
X150070716Y-53441857D01*
X150070716Y-53870429D02*
X148927859Y-53870429D01*
X152213573Y-52727571D02*
X152356430Y-52727571D01*
X152499287Y-52799000D01*
X152570716Y-52870429D01*
X152642145Y-53013286D01*
X152713573Y-53299000D01*
X152713573Y-53656143D01*
X152642145Y-53941857D01*
X152570716Y-54084714D01*
X152499287Y-54156143D01*
X152356430Y-54227571D01*
X152213573Y-54227571D01*
X152070716Y-54156143D01*
X151999287Y-54084714D01*
X151927859Y-53941857D01*
X151856430Y-53656143D01*
X151856430Y-53299000D01*
X151927859Y-53013286D01*
X151999287Y-52870429D01*
X152070716Y-52799000D01*
X152213573Y-52727571D01*
X153999287Y-53227571D02*
X153999287Y-54227571D01*
X153642144Y-52656143D02*
X153285001Y-53727571D01*
X154213573Y-53727571D01*
X155070715Y-52727571D02*
X155213572Y-52727571D01*
X155356429Y-52799000D01*
X155427858Y-52870429D01*
X155499287Y-53013286D01*
X155570715Y-53299000D01*
X155570715Y-53656143D01*
X155499287Y-53941857D01*
X155427858Y-54084714D01*
X155356429Y-54156143D01*
X155213572Y-54227571D01*
X155070715Y-54227571D01*
X154927858Y-54156143D01*
X154856429Y-54084714D01*
X154785001Y-53941857D01*
X154713572Y-53656143D01*
X154713572Y-53299000D01*
X154785001Y-53013286D01*
X154856429Y-52870429D01*
X154927858Y-52799000D01*
X155070715Y-52727571D01*
X156499286Y-52727571D02*
X156642143Y-52727571D01*
X156785000Y-52799000D01*
X156856429Y-52870429D01*
X156927858Y-53013286D01*
X156999286Y-53299000D01*
X156999286Y-53656143D01*
X156927858Y-53941857D01*
X156856429Y-54084714D01*
X156785000Y-54156143D01*
X156642143Y-54227571D01*
X156499286Y-54227571D01*
X156356429Y-54156143D01*
X156285000Y-54084714D01*
X156213572Y-53941857D01*
X156142143Y-53656143D01*
X156142143Y-53299000D01*
X156213572Y-53013286D01*
X156285000Y-52870429D01*
X156356429Y-52799000D01*
X156499286Y-52727571D01*
X157642143Y-53656143D02*
X158785000Y-53656143D01*
X159785000Y-52727571D02*
X159927857Y-52727571D01*
X160070714Y-52799000D01*
X160142143Y-52870429D01*
X160213572Y-53013286D01*
X160285000Y-53299000D01*
X160285000Y-53656143D01*
X160213572Y-53941857D01*
X160142143Y-54084714D01*
X160070714Y-54156143D01*
X159927857Y-54227571D01*
X159785000Y-54227571D01*
X159642143Y-54156143D01*
X159570714Y-54084714D01*
X159499286Y-53941857D01*
X159427857Y-53656143D01*
X159427857Y-53299000D01*
X159499286Y-53013286D01*
X159570714Y-52870429D01*
X159642143Y-52799000D01*
X159785000Y-52727571D01*
X160785000Y-52727571D02*
X161785000Y-52727571D01*
X161142143Y-54227571D01*
X162856428Y-53441857D02*
X162356428Y-53441857D01*
X162356428Y-54227571D02*
X162356428Y-52727571D01*
X163070714Y-52727571D01*
X164142142Y-53441857D02*
X163642142Y-53441857D01*
X163642142Y-54227571D02*
X163642142Y-52727571D01*
X164356428Y-52727571D01*
X142677859Y-56777571D02*
X142177859Y-56063286D01*
X141820716Y-56777571D02*
X141820716Y-55277571D01*
X142392144Y-55277571D01*
X142535002Y-55349000D01*
X142606430Y-55420429D01*
X142677859Y-55563286D01*
X142677859Y-55777571D01*
X142606430Y-55920429D01*
X142535002Y-55991857D01*
X142392144Y-56063286D01*
X141820716Y-56063286D01*
X143249287Y-56349000D02*
X143963573Y-56349000D01*
X143106430Y-56777571D02*
X143606430Y-55277571D01*
X144106430Y-56777571D01*
X144606430Y-56777571D02*
X144606430Y-55277571D01*
X145106430Y-56349000D01*
X145606430Y-55277571D01*
X145606430Y-56777571D01*
X146249287Y-55420429D02*
X146320716Y-55349000D01*
X146463573Y-55277571D01*
X146820716Y-55277571D01*
X146963573Y-55349000D01*
X147035002Y-55420429D01*
X147106430Y-55563286D01*
X147106430Y-55706143D01*
X147035002Y-55920429D01*
X146177859Y-56777571D01*
X147106430Y-56777571D01*
X141463573Y-55019000D02*
X147392144Y-55019000D01*
X148892144Y-55991857D02*
X150035001Y-55991857D01*
X150035001Y-56420429D02*
X148892144Y-56420429D01*
X152177858Y-55277571D02*
X152320715Y-55277571D01*
X152463572Y-55349000D01*
X152535001Y-55420429D01*
X152606430Y-55563286D01*
X152677858Y-55849000D01*
X152677858Y-56206143D01*
X152606430Y-56491857D01*
X152535001Y-56634714D01*
X152463572Y-56706143D01*
X152320715Y-56777571D01*
X152177858Y-56777571D01*
X152035001Y-56706143D01*
X151963572Y-56634714D01*
X151892144Y-56491857D01*
X151820715Y-56206143D01*
X151820715Y-55849000D01*
X151892144Y-55563286D01*
X151963572Y-55420429D01*
X152035001Y-55349000D01*
X152177858Y-55277571D01*
X153535001Y-55920429D02*
X153392143Y-55849000D01*
X153320715Y-55777571D01*
X153249286Y-55634714D01*
X153249286Y-55563286D01*
X153320715Y-55420429D01*
X153392143Y-55349000D01*
X153535001Y-55277571D01*
X153820715Y-55277571D01*
X153963572Y-55349000D01*
X154035001Y-55420429D01*
X154106429Y-55563286D01*
X154106429Y-55634714D01*
X154035001Y-55777571D01*
X153963572Y-55849000D01*
X153820715Y-55920429D01*
X153535001Y-55920429D01*
X153392143Y-55991857D01*
X153320715Y-56063286D01*
X153249286Y-56206143D01*
X153249286Y-56491857D01*
X153320715Y-56634714D01*
X153392143Y-56706143D01*
X153535001Y-56777571D01*
X153820715Y-56777571D01*
X153963572Y-56706143D01*
X154035001Y-56634714D01*
X154106429Y-56491857D01*
X154106429Y-56206143D01*
X154035001Y-56063286D01*
X153963572Y-55991857D01*
X153820715Y-55920429D01*
X155035000Y-55277571D02*
X155177857Y-55277571D01*
X155320714Y-55349000D01*
X155392143Y-55420429D01*
X155463572Y-55563286D01*
X155535000Y-55849000D01*
X155535000Y-56206143D01*
X155463572Y-56491857D01*
X155392143Y-56634714D01*
X155320714Y-56706143D01*
X155177857Y-56777571D01*
X155035000Y-56777571D01*
X154892143Y-56706143D01*
X154820714Y-56634714D01*
X154749286Y-56491857D01*
X154677857Y-56206143D01*
X154677857Y-55849000D01*
X154749286Y-55563286D01*
X154820714Y-55420429D01*
X154892143Y-55349000D01*
X155035000Y-55277571D01*
X156463571Y-55277571D02*
X156606428Y-55277571D01*
X156749285Y-55349000D01*
X156820714Y-55420429D01*
X156892143Y-55563286D01*
X156963571Y-55849000D01*
X156963571Y-56206143D01*
X156892143Y-56491857D01*
X156820714Y-56634714D01*
X156749285Y-56706143D01*
X156606428Y-56777571D01*
X156463571Y-56777571D01*
X156320714Y-56706143D01*
X156249285Y-56634714D01*
X156177857Y-56491857D01*
X156106428Y-56206143D01*
X156106428Y-55849000D01*
X156177857Y-55563286D01*
X156249285Y-55420429D01*
X156320714Y-55349000D01*
X156463571Y-55277571D01*
X157606428Y-56206143D02*
X158749285Y-56206143D01*
X159749285Y-55277571D02*
X159892142Y-55277571D01*
X160034999Y-55349000D01*
X160106428Y-55420429D01*
X160177857Y-55563286D01*
X160249285Y-55849000D01*
X160249285Y-56206143D01*
X160177857Y-56491857D01*
X160106428Y-56634714D01*
X160034999Y-56706143D01*
X159892142Y-56777571D01*
X159749285Y-56777571D01*
X159606428Y-56706143D01*
X159534999Y-56634714D01*
X159463571Y-56491857D01*
X159392142Y-56206143D01*
X159392142Y-55849000D01*
X159463571Y-55563286D01*
X159534999Y-55420429D01*
X159606428Y-55349000D01*
X159749285Y-55277571D01*
X161392142Y-55991857D02*
X161606428Y-56063286D01*
X161677856Y-56134714D01*
X161749285Y-56277571D01*
X161749285Y-56491857D01*
X161677856Y-56634714D01*
X161606428Y-56706143D01*
X161463570Y-56777571D01*
X160892142Y-56777571D01*
X160892142Y-55277571D01*
X161392142Y-55277571D01*
X161534999Y-55349000D01*
X161606428Y-55420429D01*
X161677856Y-55563286D01*
X161677856Y-55706143D01*
X161606428Y-55849000D01*
X161534999Y-55920429D01*
X161392142Y-55991857D01*
X160892142Y-55991857D01*
X162892142Y-55991857D02*
X162392142Y-55991857D01*
X162392142Y-56777571D02*
X162392142Y-55277571D01*
X163106428Y-55277571D01*
X164177856Y-55991857D02*
X163677856Y-55991857D01*
X163677856Y-56777571D02*
X163677856Y-55277571D01*
X164392142Y-55277571D01*
X142749288Y-59327571D02*
X142249288Y-58613286D01*
X141892145Y-59327571D02*
X141892145Y-57827571D01*
X142463573Y-57827571D01*
X142606431Y-57899000D01*
X142677859Y-57970429D01*
X142749288Y-58113286D01*
X142749288Y-58327571D01*
X142677859Y-58470429D01*
X142606431Y-58541857D01*
X142463573Y-58613286D01*
X141892145Y-58613286D01*
X143320716Y-58899000D02*
X144035002Y-58899000D01*
X143177859Y-59327571D02*
X143677859Y-57827571D01*
X144177859Y-59327571D01*
X144677859Y-59327571D02*
X144677859Y-57827571D01*
X145177859Y-58899000D01*
X145677859Y-57827571D01*
X145677859Y-59327571D01*
X146249288Y-57827571D02*
X147177859Y-57827571D01*
X146677859Y-58399000D01*
X146892145Y-58399000D01*
X147035002Y-58470429D01*
X147106431Y-58541857D01*
X147177859Y-58684714D01*
X147177859Y-59041857D01*
X147106431Y-59184714D01*
X147035002Y-59256143D01*
X146892145Y-59327571D01*
X146463573Y-59327571D01*
X146320716Y-59256143D01*
X146249288Y-59184714D01*
X141535002Y-57569000D02*
X147463573Y-57569000D01*
X148963573Y-58541857D02*
X150106430Y-58541857D01*
X150106430Y-58970429D02*
X148963573Y-58970429D01*
X152249287Y-57827571D02*
X152392144Y-57827571D01*
X152535001Y-57899000D01*
X152606430Y-57970429D01*
X152677859Y-58113286D01*
X152749287Y-58399000D01*
X152749287Y-58756143D01*
X152677859Y-59041857D01*
X152606430Y-59184714D01*
X152535001Y-59256143D01*
X152392144Y-59327571D01*
X152249287Y-59327571D01*
X152106430Y-59256143D01*
X152035001Y-59184714D01*
X151963573Y-59041857D01*
X151892144Y-58756143D01*
X151892144Y-58399000D01*
X151963573Y-58113286D01*
X152035001Y-57970429D01*
X152106430Y-57899000D01*
X152249287Y-57827571D01*
X154249287Y-59184714D02*
X154177858Y-59256143D01*
X153963572Y-59327571D01*
X153820715Y-59327571D01*
X153606430Y-59256143D01*
X153463572Y-59113286D01*
X153392144Y-58970429D01*
X153320715Y-58684714D01*
X153320715Y-58470429D01*
X153392144Y-58184714D01*
X153463572Y-58041857D01*
X153606430Y-57899000D01*
X153820715Y-57827571D01*
X153963572Y-57827571D01*
X154177858Y-57899000D01*
X154249287Y-57970429D01*
X155177858Y-57827571D02*
X155320715Y-57827571D01*
X155463572Y-57899000D01*
X155535001Y-57970429D01*
X155606430Y-58113286D01*
X155677858Y-58399000D01*
X155677858Y-58756143D01*
X155606430Y-59041857D01*
X155535001Y-59184714D01*
X155463572Y-59256143D01*
X155320715Y-59327571D01*
X155177858Y-59327571D01*
X155035001Y-59256143D01*
X154963572Y-59184714D01*
X154892144Y-59041857D01*
X154820715Y-58756143D01*
X154820715Y-58399000D01*
X154892144Y-58113286D01*
X154963572Y-57970429D01*
X155035001Y-57899000D01*
X155177858Y-57827571D01*
X156606429Y-57827571D02*
X156749286Y-57827571D01*
X156892143Y-57899000D01*
X156963572Y-57970429D01*
X157035001Y-58113286D01*
X157106429Y-58399000D01*
X157106429Y-58756143D01*
X157035001Y-59041857D01*
X156963572Y-59184714D01*
X156892143Y-59256143D01*
X156749286Y-59327571D01*
X156606429Y-59327571D01*
X156463572Y-59256143D01*
X156392143Y-59184714D01*
X156320715Y-59041857D01*
X156249286Y-58756143D01*
X156249286Y-58399000D01*
X156320715Y-58113286D01*
X156392143Y-57970429D01*
X156463572Y-57899000D01*
X156606429Y-57827571D01*
X157749286Y-58756143D02*
X158892143Y-58756143D01*
X159892143Y-57827571D02*
X160035000Y-57827571D01*
X160177857Y-57899000D01*
X160249286Y-57970429D01*
X160320715Y-58113286D01*
X160392143Y-58399000D01*
X160392143Y-58756143D01*
X160320715Y-59041857D01*
X160249286Y-59184714D01*
X160177857Y-59256143D01*
X160035000Y-59327571D01*
X159892143Y-59327571D01*
X159749286Y-59256143D01*
X159677857Y-59184714D01*
X159606429Y-59041857D01*
X159535000Y-58756143D01*
X159535000Y-58399000D01*
X159606429Y-58113286D01*
X159677857Y-57970429D01*
X159749286Y-57899000D01*
X159892143Y-57827571D01*
X161535000Y-58541857D02*
X161035000Y-58541857D01*
X161035000Y-59327571D02*
X161035000Y-57827571D01*
X161749286Y-57827571D01*
X162820714Y-58541857D02*
X162320714Y-58541857D01*
X162320714Y-59327571D02*
X162320714Y-57827571D01*
X163035000Y-57827571D01*
X164106428Y-58541857D02*
X163606428Y-58541857D01*
X163606428Y-59327571D02*
X163606428Y-57827571D01*
X164320714Y-57827571D01*
X142570716Y-61091857D02*
X142785002Y-61163286D01*
X142856430Y-61234714D01*
X142927859Y-61377571D01*
X142927859Y-61591857D01*
X142856430Y-61734714D01*
X142785002Y-61806143D01*
X142642144Y-61877571D01*
X142070716Y-61877571D01*
X142070716Y-60377571D01*
X142570716Y-60377571D01*
X142713573Y-60449000D01*
X142785002Y-60520429D01*
X142856430Y-60663286D01*
X142856430Y-60806143D01*
X142785002Y-60949000D01*
X142713573Y-61020429D01*
X142570716Y-61091857D01*
X142070716Y-61091857D01*
X144285002Y-61877571D02*
X143570716Y-61877571D01*
X143570716Y-60377571D01*
X144785002Y-61877571D02*
X144785002Y-60377571D01*
X145642145Y-61877571D02*
X144999288Y-61020429D01*
X145642145Y-60377571D02*
X144785002Y-61234714D01*
X147070716Y-61877571D02*
X146213573Y-61877571D01*
X146642145Y-61877571D02*
X146642145Y-60377571D01*
X146499288Y-60591857D01*
X146356430Y-60734714D01*
X146213573Y-60806143D01*
X141713573Y-60119000D02*
X147356430Y-60119000D01*
X148856430Y-61091857D02*
X149999287Y-61091857D01*
X149999287Y-61520429D02*
X148856430Y-61520429D01*
X151785001Y-60520429D02*
X151856430Y-60449000D01*
X151999287Y-60377571D01*
X152356430Y-60377571D01*
X152499287Y-60449000D01*
X152570716Y-60520429D01*
X152642144Y-60663286D01*
X152642144Y-60806143D01*
X152570716Y-61020429D01*
X151713573Y-61877571D01*
X152642144Y-61877571D01*
X153570715Y-60377571D02*
X153713572Y-60377571D01*
X153856429Y-60449000D01*
X153927858Y-60520429D01*
X153999287Y-60663286D01*
X154070715Y-60949000D01*
X154070715Y-61306143D01*
X153999287Y-61591857D01*
X153927858Y-61734714D01*
X153856429Y-61806143D01*
X153713572Y-61877571D01*
X153570715Y-61877571D01*
X153427858Y-61806143D01*
X153356429Y-61734714D01*
X153285001Y-61591857D01*
X153213572Y-61306143D01*
X153213572Y-60949000D01*
X153285001Y-60663286D01*
X153356429Y-60520429D01*
X153427858Y-60449000D01*
X153570715Y-60377571D01*
X154999286Y-60377571D02*
X155142143Y-60377571D01*
X155285000Y-60449000D01*
X155356429Y-60520429D01*
X155427858Y-60663286D01*
X155499286Y-60949000D01*
X155499286Y-61306143D01*
X155427858Y-61591857D01*
X155356429Y-61734714D01*
X155285000Y-61806143D01*
X155142143Y-61877571D01*
X154999286Y-61877571D01*
X154856429Y-61806143D01*
X154785000Y-61734714D01*
X154713572Y-61591857D01*
X154642143Y-61306143D01*
X154642143Y-60949000D01*
X154713572Y-60663286D01*
X154785000Y-60520429D01*
X154856429Y-60449000D01*
X154999286Y-60377571D01*
X156427857Y-60377571D02*
X156570714Y-60377571D01*
X156713571Y-60449000D01*
X156785000Y-60520429D01*
X156856429Y-60663286D01*
X156927857Y-60949000D01*
X156927857Y-61306143D01*
X156856429Y-61591857D01*
X156785000Y-61734714D01*
X156713571Y-61806143D01*
X156570714Y-61877571D01*
X156427857Y-61877571D01*
X156285000Y-61806143D01*
X156213571Y-61734714D01*
X156142143Y-61591857D01*
X156070714Y-61306143D01*
X156070714Y-60949000D01*
X156142143Y-60663286D01*
X156213571Y-60520429D01*
X156285000Y-60449000D01*
X156427857Y-60377571D01*
X157570714Y-61306143D02*
X158713571Y-61306143D01*
X159285000Y-60377571D02*
X160213571Y-60377571D01*
X159713571Y-60949000D01*
X159927857Y-60949000D01*
X160070714Y-61020429D01*
X160142143Y-61091857D01*
X160213571Y-61234714D01*
X160213571Y-61591857D01*
X160142143Y-61734714D01*
X160070714Y-61806143D01*
X159927857Y-61877571D01*
X159499285Y-61877571D01*
X159356428Y-61806143D01*
X159285000Y-61734714D01*
X161356428Y-61091857D02*
X160856428Y-61091857D01*
X160856428Y-61877571D02*
X160856428Y-60377571D01*
X161570714Y-60377571D01*
X162642142Y-61091857D02*
X162142142Y-61091857D01*
X162142142Y-61877571D02*
X162142142Y-60377571D01*
X162856428Y-60377571D01*
X163927856Y-61091857D02*
X163427856Y-61091857D01*
X163427856Y-61877571D02*
X163427856Y-60377571D01*
X164142142Y-60377571D01*
X142570716Y-63641857D02*
X142785002Y-63713286D01*
X142856430Y-63784714D01*
X142927859Y-63927571D01*
X142927859Y-64141857D01*
X142856430Y-64284714D01*
X142785002Y-64356143D01*
X142642144Y-64427571D01*
X142070716Y-64427571D01*
X142070716Y-62927571D01*
X142570716Y-62927571D01*
X142713573Y-62999000D01*
X142785002Y-63070429D01*
X142856430Y-63213286D01*
X142856430Y-63356143D01*
X142785002Y-63499000D01*
X142713573Y-63570429D01*
X142570716Y-63641857D01*
X142070716Y-63641857D01*
X144285002Y-64427571D02*
X143570716Y-64427571D01*
X143570716Y-62927571D01*
X144785002Y-64427571D02*
X144785002Y-62927571D01*
X145642145Y-64427571D02*
X144999288Y-63570429D01*
X145642145Y-62927571D02*
X144785002Y-63784714D01*
X146213573Y-63070429D02*
X146285002Y-62999000D01*
X146427859Y-62927571D01*
X146785002Y-62927571D01*
X146927859Y-62999000D01*
X146999288Y-63070429D01*
X147070716Y-63213286D01*
X147070716Y-63356143D01*
X146999288Y-63570429D01*
X146142145Y-64427571D01*
X147070716Y-64427571D01*
X141713573Y-62669000D02*
X147356430Y-62669000D01*
X148856430Y-63641857D02*
X149999287Y-63641857D01*
X149999287Y-64070429D02*
X148856430Y-64070429D01*
X152499287Y-63427571D02*
X152499287Y-64427571D01*
X152142144Y-62856143D02*
X151785001Y-63927571D01*
X152713573Y-63927571D01*
X153570715Y-62927571D02*
X153713572Y-62927571D01*
X153856429Y-62999000D01*
X153927858Y-63070429D01*
X153999287Y-63213286D01*
X154070715Y-63499000D01*
X154070715Y-63856143D01*
X153999287Y-64141857D01*
X153927858Y-64284714D01*
X153856429Y-64356143D01*
X153713572Y-64427571D01*
X153570715Y-64427571D01*
X153427858Y-64356143D01*
X153356429Y-64284714D01*
X153285001Y-64141857D01*
X153213572Y-63856143D01*
X153213572Y-63499000D01*
X153285001Y-63213286D01*
X153356429Y-63070429D01*
X153427858Y-62999000D01*
X153570715Y-62927571D01*
X154999286Y-62927571D02*
X155142143Y-62927571D01*
X155285000Y-62999000D01*
X155356429Y-63070429D01*
X155427858Y-63213286D01*
X155499286Y-63499000D01*
X155499286Y-63856143D01*
X155427858Y-64141857D01*
X155356429Y-64284714D01*
X155285000Y-64356143D01*
X155142143Y-64427571D01*
X154999286Y-64427571D01*
X154856429Y-64356143D01*
X154785000Y-64284714D01*
X154713572Y-64141857D01*
X154642143Y-63856143D01*
X154642143Y-63499000D01*
X154713572Y-63213286D01*
X154785000Y-63070429D01*
X154856429Y-62999000D01*
X154999286Y-62927571D01*
X156427857Y-62927571D02*
X156570714Y-62927571D01*
X156713571Y-62999000D01*
X156785000Y-63070429D01*
X156856429Y-63213286D01*
X156927857Y-63499000D01*
X156927857Y-63856143D01*
X156856429Y-64141857D01*
X156785000Y-64284714D01*
X156713571Y-64356143D01*
X156570714Y-64427571D01*
X156427857Y-64427571D01*
X156285000Y-64356143D01*
X156213571Y-64284714D01*
X156142143Y-64141857D01*
X156070714Y-63856143D01*
X156070714Y-63499000D01*
X156142143Y-63213286D01*
X156213571Y-63070429D01*
X156285000Y-62999000D01*
X156427857Y-62927571D01*
X157570714Y-63856143D02*
X158713571Y-63856143D01*
X160142143Y-62927571D02*
X159427857Y-62927571D01*
X159356428Y-63641857D01*
X159427857Y-63570429D01*
X159570714Y-63499000D01*
X159927857Y-63499000D01*
X160070714Y-63570429D01*
X160142143Y-63641857D01*
X160213571Y-63784714D01*
X160213571Y-64141857D01*
X160142143Y-64284714D01*
X160070714Y-64356143D01*
X159927857Y-64427571D01*
X159570714Y-64427571D01*
X159427857Y-64356143D01*
X159356428Y-64284714D01*
X161356428Y-63641857D02*
X160856428Y-63641857D01*
X160856428Y-64427571D02*
X160856428Y-62927571D01*
X161570714Y-62927571D01*
X162642142Y-63641857D02*
X162142142Y-63641857D01*
X162142142Y-64427571D02*
X162142142Y-62927571D01*
X162856428Y-62927571D01*
X163927856Y-63641857D02*
X163427856Y-63641857D01*
X163427856Y-64427571D02*
X163427856Y-62927571D01*
X164142142Y-62927571D01*
X142570716Y-66191857D02*
X142785002Y-66263286D01*
X142856430Y-66334714D01*
X142927859Y-66477571D01*
X142927859Y-66691857D01*
X142856430Y-66834714D01*
X142785002Y-66906143D01*
X142642144Y-66977571D01*
X142070716Y-66977571D01*
X142070716Y-65477571D01*
X142570716Y-65477571D01*
X142713573Y-65549000D01*
X142785002Y-65620429D01*
X142856430Y-65763286D01*
X142856430Y-65906143D01*
X142785002Y-66049000D01*
X142713573Y-66120429D01*
X142570716Y-66191857D01*
X142070716Y-66191857D01*
X144285002Y-66977571D02*
X143570716Y-66977571D01*
X143570716Y-65477571D01*
X144785002Y-66977571D02*
X144785002Y-65477571D01*
X145642145Y-66977571D02*
X144999288Y-66120429D01*
X145642145Y-65477571D02*
X144785002Y-66334714D01*
X146142145Y-65477571D02*
X147070716Y-65477571D01*
X146570716Y-66049000D01*
X146785002Y-66049000D01*
X146927859Y-66120429D01*
X146999288Y-66191857D01*
X147070716Y-66334714D01*
X147070716Y-66691857D01*
X146999288Y-66834714D01*
X146927859Y-66906143D01*
X146785002Y-66977571D01*
X146356430Y-66977571D01*
X146213573Y-66906143D01*
X146142145Y-66834714D01*
X141713573Y-65219000D02*
X147356430Y-65219000D01*
X148856430Y-66191857D02*
X149999287Y-66191857D01*
X149999287Y-66620429D02*
X148856430Y-66620429D01*
X152499287Y-65477571D02*
X152213573Y-65477571D01*
X152070716Y-65549000D01*
X151999287Y-65620429D01*
X151856430Y-65834714D01*
X151785001Y-66120429D01*
X151785001Y-66691857D01*
X151856430Y-66834714D01*
X151927858Y-66906143D01*
X152070716Y-66977571D01*
X152356430Y-66977571D01*
X152499287Y-66906143D01*
X152570716Y-66834714D01*
X152642144Y-66691857D01*
X152642144Y-66334714D01*
X152570716Y-66191857D01*
X152499287Y-66120429D01*
X152356430Y-66049000D01*
X152070716Y-66049000D01*
X151927858Y-66120429D01*
X151856430Y-66191857D01*
X151785001Y-66334714D01*
X153570715Y-65477571D02*
X153713572Y-65477571D01*
X153856429Y-65549000D01*
X153927858Y-65620429D01*
X153999287Y-65763286D01*
X154070715Y-66049000D01*
X154070715Y-66406143D01*
X153999287Y-66691857D01*
X153927858Y-66834714D01*
X153856429Y-66906143D01*
X153713572Y-66977571D01*
X153570715Y-66977571D01*
X153427858Y-66906143D01*
X153356429Y-66834714D01*
X153285001Y-66691857D01*
X153213572Y-66406143D01*
X153213572Y-66049000D01*
X153285001Y-65763286D01*
X153356429Y-65620429D01*
X153427858Y-65549000D01*
X153570715Y-65477571D01*
X154999286Y-65477571D02*
X155142143Y-65477571D01*
X155285000Y-65549000D01*
X155356429Y-65620429D01*
X155427858Y-65763286D01*
X155499286Y-66049000D01*
X155499286Y-66406143D01*
X155427858Y-66691857D01*
X155356429Y-66834714D01*
X155285000Y-66906143D01*
X155142143Y-66977571D01*
X154999286Y-66977571D01*
X154856429Y-66906143D01*
X154785000Y-66834714D01*
X154713572Y-66691857D01*
X154642143Y-66406143D01*
X154642143Y-66049000D01*
X154713572Y-65763286D01*
X154785000Y-65620429D01*
X154856429Y-65549000D01*
X154999286Y-65477571D01*
X156427857Y-65477571D02*
X156570714Y-65477571D01*
X156713571Y-65549000D01*
X156785000Y-65620429D01*
X156856429Y-65763286D01*
X156927857Y-66049000D01*
X156927857Y-66406143D01*
X156856429Y-66691857D01*
X156785000Y-66834714D01*
X156713571Y-66906143D01*
X156570714Y-66977571D01*
X156427857Y-66977571D01*
X156285000Y-66906143D01*
X156213571Y-66834714D01*
X156142143Y-66691857D01*
X156070714Y-66406143D01*
X156070714Y-66049000D01*
X156142143Y-65763286D01*
X156213571Y-65620429D01*
X156285000Y-65549000D01*
X156427857Y-65477571D01*
X157570714Y-66406143D02*
X158713571Y-66406143D01*
X159285000Y-65477571D02*
X160285000Y-65477571D01*
X159642143Y-66977571D01*
X161356428Y-66191857D02*
X160856428Y-66191857D01*
X160856428Y-66977571D02*
X160856428Y-65477571D01*
X161570714Y-65477571D01*
X162642142Y-66191857D02*
X162142142Y-66191857D01*
X162142142Y-66977571D02*
X162142142Y-65477571D01*
X162856428Y-65477571D01*
X163927856Y-66191857D02*
X163427856Y-66191857D01*
X163427856Y-66977571D02*
X163427856Y-65477571D01*
X164142142Y-65477571D01*
X142606430Y-68741857D02*
X142820716Y-68813286D01*
X142892144Y-68884714D01*
X142963573Y-69027571D01*
X142963573Y-69241857D01*
X142892144Y-69384714D01*
X142820716Y-69456143D01*
X142677858Y-69527571D01*
X142106430Y-69527571D01*
X142106430Y-68027571D01*
X142606430Y-68027571D01*
X142749287Y-68099000D01*
X142820716Y-68170429D01*
X142892144Y-68313286D01*
X142892144Y-68456143D01*
X142820716Y-68599000D01*
X142749287Y-68670429D01*
X142606430Y-68741857D01*
X142106430Y-68741857D01*
X144320716Y-69527571D02*
X143606430Y-69527571D01*
X143606430Y-68027571D01*
X144820716Y-69527571D02*
X144820716Y-68027571D01*
X145677859Y-69527571D02*
X145035002Y-68670429D01*
X145677859Y-68027571D02*
X144820716Y-68884714D01*
X147035002Y-68027571D02*
X146320716Y-68027571D01*
X146249287Y-68741857D01*
X146320716Y-68670429D01*
X146463573Y-68599000D01*
X146820716Y-68599000D01*
X146963573Y-68670429D01*
X147035002Y-68741857D01*
X147106430Y-68884714D01*
X147106430Y-69241857D01*
X147035002Y-69384714D01*
X146963573Y-69456143D01*
X146820716Y-69527571D01*
X146463573Y-69527571D01*
X146320716Y-69456143D01*
X146249287Y-69384714D01*
X141749287Y-67769000D02*
X147392144Y-67769000D01*
X148892144Y-68741857D02*
X150035001Y-68741857D01*
X150035001Y-69170429D02*
X148892144Y-69170429D01*
X151820715Y-69099000D02*
X152535001Y-69099000D01*
X151677858Y-69527571D02*
X152177858Y-68027571D01*
X152677858Y-69527571D01*
X153463572Y-68027571D02*
X153606429Y-68027571D01*
X153749286Y-68099000D01*
X153820715Y-68170429D01*
X153892144Y-68313286D01*
X153963572Y-68599000D01*
X153963572Y-68956143D01*
X153892144Y-69241857D01*
X153820715Y-69384714D01*
X153749286Y-69456143D01*
X153606429Y-69527571D01*
X153463572Y-69527571D01*
X153320715Y-69456143D01*
X153249286Y-69384714D01*
X153177858Y-69241857D01*
X153106429Y-68956143D01*
X153106429Y-68599000D01*
X153177858Y-68313286D01*
X153249286Y-68170429D01*
X153320715Y-68099000D01*
X153463572Y-68027571D01*
X154892143Y-68027571D02*
X155035000Y-68027571D01*
X155177857Y-68099000D01*
X155249286Y-68170429D01*
X155320715Y-68313286D01*
X155392143Y-68599000D01*
X155392143Y-68956143D01*
X155320715Y-69241857D01*
X155249286Y-69384714D01*
X155177857Y-69456143D01*
X155035000Y-69527571D01*
X154892143Y-69527571D01*
X154749286Y-69456143D01*
X154677857Y-69384714D01*
X154606429Y-69241857D01*
X154535000Y-68956143D01*
X154535000Y-68599000D01*
X154606429Y-68313286D01*
X154677857Y-68170429D01*
X154749286Y-68099000D01*
X154892143Y-68027571D01*
X156320714Y-68027571D02*
X156463571Y-68027571D01*
X156606428Y-68099000D01*
X156677857Y-68170429D01*
X156749286Y-68313286D01*
X156820714Y-68599000D01*
X156820714Y-68956143D01*
X156749286Y-69241857D01*
X156677857Y-69384714D01*
X156606428Y-69456143D01*
X156463571Y-69527571D01*
X156320714Y-69527571D01*
X156177857Y-69456143D01*
X156106428Y-69384714D01*
X156035000Y-69241857D01*
X155963571Y-68956143D01*
X155963571Y-68599000D01*
X156035000Y-68313286D01*
X156106428Y-68170429D01*
X156177857Y-68099000D01*
X156320714Y-68027571D01*
X157463571Y-68956143D02*
X158606428Y-68956143D01*
X159820714Y-68741857D02*
X160035000Y-68813286D01*
X160106428Y-68884714D01*
X160177857Y-69027571D01*
X160177857Y-69241857D01*
X160106428Y-69384714D01*
X160035000Y-69456143D01*
X159892142Y-69527571D01*
X159320714Y-69527571D01*
X159320714Y-68027571D01*
X159820714Y-68027571D01*
X159963571Y-68099000D01*
X160035000Y-68170429D01*
X160106428Y-68313286D01*
X160106428Y-68456143D01*
X160035000Y-68599000D01*
X159963571Y-68670429D01*
X159820714Y-68741857D01*
X159320714Y-68741857D01*
X161320714Y-68741857D02*
X160820714Y-68741857D01*
X160820714Y-69527571D02*
X160820714Y-68027571D01*
X161535000Y-68027571D01*
X162606428Y-68741857D02*
X162106428Y-68741857D01*
X162106428Y-69527571D02*
X162106428Y-68027571D01*
X162820714Y-68027571D01*
X163892142Y-68741857D02*
X163392142Y-68741857D01*
X163392142Y-69527571D02*
X163392142Y-68027571D01*
X164106428Y-68027571D01*
X142142144Y-72077571D02*
X142142144Y-70577571D01*
X143927858Y-70506143D02*
X142642144Y-72434714D01*
X144713573Y-70577571D02*
X144999287Y-70577571D01*
X145142145Y-70649000D01*
X145285002Y-70791857D01*
X145356430Y-71077571D01*
X145356430Y-71577571D01*
X145285002Y-71863286D01*
X145142145Y-72006143D01*
X144999287Y-72077571D01*
X144713573Y-72077571D01*
X144570716Y-72006143D01*
X144427859Y-71863286D01*
X144356430Y-71577571D01*
X144356430Y-71077571D01*
X144427859Y-70791857D01*
X144570716Y-70649000D01*
X144713573Y-70577571D01*
X145927859Y-70720429D02*
X145999288Y-70649000D01*
X146142145Y-70577571D01*
X146499288Y-70577571D01*
X146642145Y-70649000D01*
X146713574Y-70720429D01*
X146785002Y-70863286D01*
X146785002Y-71006143D01*
X146713574Y-71220429D01*
X145856431Y-72077571D01*
X146785002Y-72077571D01*
X141785001Y-70319000D02*
X147070716Y-70319000D01*
X148570716Y-71291857D02*
X149713573Y-71291857D01*
X149713573Y-71720429D02*
X148570716Y-71720429D01*
X151642144Y-72077571D02*
X151927859Y-72077571D01*
X152070716Y-72006143D01*
X152142144Y-71934714D01*
X152285002Y-71720429D01*
X152356430Y-71434714D01*
X152356430Y-70863286D01*
X152285002Y-70720429D01*
X152213573Y-70649000D01*
X152070716Y-70577571D01*
X151785002Y-70577571D01*
X151642144Y-70649000D01*
X151570716Y-70720429D01*
X151499287Y-70863286D01*
X151499287Y-71220429D01*
X151570716Y-71363286D01*
X151642144Y-71434714D01*
X151785002Y-71506143D01*
X152070716Y-71506143D01*
X152213573Y-71434714D01*
X152285002Y-71363286D01*
X152356430Y-71220429D01*
X153213573Y-71220429D02*
X153070715Y-71149000D01*
X152999287Y-71077571D01*
X152927858Y-70934714D01*
X152927858Y-70863286D01*
X152999287Y-70720429D01*
X153070715Y-70649000D01*
X153213573Y-70577571D01*
X153499287Y-70577571D01*
X153642144Y-70649000D01*
X153713573Y-70720429D01*
X153785001Y-70863286D01*
X153785001Y-70934714D01*
X153713573Y-71077571D01*
X153642144Y-71149000D01*
X153499287Y-71220429D01*
X153213573Y-71220429D01*
X153070715Y-71291857D01*
X152999287Y-71363286D01*
X152927858Y-71506143D01*
X152927858Y-71791857D01*
X152999287Y-71934714D01*
X153070715Y-72006143D01*
X153213573Y-72077571D01*
X153499287Y-72077571D01*
X153642144Y-72006143D01*
X153713573Y-71934714D01*
X153785001Y-71791857D01*
X153785001Y-71506143D01*
X153713573Y-71363286D01*
X153642144Y-71291857D01*
X153499287Y-71220429D01*
X154713572Y-70577571D02*
X154856429Y-70577571D01*
X154999286Y-70649000D01*
X155070715Y-70720429D01*
X155142144Y-70863286D01*
X155213572Y-71149000D01*
X155213572Y-71506143D01*
X155142144Y-71791857D01*
X155070715Y-71934714D01*
X154999286Y-72006143D01*
X154856429Y-72077571D01*
X154713572Y-72077571D01*
X154570715Y-72006143D01*
X154499286Y-71934714D01*
X154427858Y-71791857D01*
X154356429Y-71506143D01*
X154356429Y-71149000D01*
X154427858Y-70863286D01*
X154499286Y-70720429D01*
X154570715Y-70649000D01*
X154713572Y-70577571D01*
X156142143Y-70577571D02*
X156285000Y-70577571D01*
X156427857Y-70649000D01*
X156499286Y-70720429D01*
X156570715Y-70863286D01*
X156642143Y-71149000D01*
X156642143Y-71506143D01*
X156570715Y-71791857D01*
X156499286Y-71934714D01*
X156427857Y-72006143D01*
X156285000Y-72077571D01*
X156142143Y-72077571D01*
X155999286Y-72006143D01*
X155927857Y-71934714D01*
X155856429Y-71791857D01*
X155785000Y-71506143D01*
X155785000Y-71149000D01*
X155856429Y-70863286D01*
X155927857Y-70720429D01*
X155999286Y-70649000D01*
X156142143Y-70577571D01*
X157285000Y-71506143D02*
X158427857Y-71506143D01*
X159213571Y-72077571D02*
X159499286Y-72077571D01*
X159642143Y-72006143D01*
X159713571Y-71934714D01*
X159856429Y-71720429D01*
X159927857Y-71434714D01*
X159927857Y-70863286D01*
X159856429Y-70720429D01*
X159785000Y-70649000D01*
X159642143Y-70577571D01*
X159356429Y-70577571D01*
X159213571Y-70649000D01*
X159142143Y-70720429D01*
X159070714Y-70863286D01*
X159070714Y-71220429D01*
X159142143Y-71363286D01*
X159213571Y-71434714D01*
X159356429Y-71506143D01*
X159642143Y-71506143D01*
X159785000Y-71434714D01*
X159856429Y-71363286D01*
X159927857Y-71220429D01*
X161070714Y-71291857D02*
X161285000Y-71363286D01*
X161356428Y-71434714D01*
X161427857Y-71577571D01*
X161427857Y-71791857D01*
X161356428Y-71934714D01*
X161285000Y-72006143D01*
X161142142Y-72077571D01*
X160570714Y-72077571D01*
X160570714Y-70577571D01*
X161070714Y-70577571D01*
X161213571Y-70649000D01*
X161285000Y-70720429D01*
X161356428Y-70863286D01*
X161356428Y-71006143D01*
X161285000Y-71149000D01*
X161213571Y-71220429D01*
X161070714Y-71291857D01*
X160570714Y-71291857D01*
X162570714Y-71291857D02*
X162070714Y-71291857D01*
X162070714Y-72077571D02*
X162070714Y-70577571D01*
X162785000Y-70577571D01*
X163856428Y-71291857D02*
X163356428Y-71291857D01*
X163356428Y-72077571D02*
X163356428Y-70577571D01*
X164070714Y-70577571D01*
X142213573Y-74627571D02*
X142213573Y-73127571D01*
X143999287Y-73056143D02*
X142713573Y-74984714D01*
X144785002Y-73127571D02*
X145070716Y-73127571D01*
X145213574Y-73199000D01*
X145356431Y-73341857D01*
X145427859Y-73627571D01*
X145427859Y-74127571D01*
X145356431Y-74413286D01*
X145213574Y-74556143D01*
X145070716Y-74627571D01*
X144785002Y-74627571D01*
X144642145Y-74556143D01*
X144499288Y-74413286D01*
X144427859Y-74127571D01*
X144427859Y-73627571D01*
X144499288Y-73341857D01*
X144642145Y-73199000D01*
X144785002Y-73127571D01*
X145927860Y-73127571D02*
X146856431Y-73127571D01*
X146356431Y-73699000D01*
X146570717Y-73699000D01*
X146713574Y-73770429D01*
X146785003Y-73841857D01*
X146856431Y-73984714D01*
X146856431Y-74341857D01*
X146785003Y-74484714D01*
X146713574Y-74556143D01*
X146570717Y-74627571D01*
X146142145Y-74627571D01*
X145999288Y-74556143D01*
X145927860Y-74484714D01*
X141856430Y-72869000D02*
X147142145Y-72869000D01*
X148642145Y-73841857D02*
X149785002Y-73841857D01*
X149785002Y-74270429D02*
X148642145Y-74270429D01*
X151713573Y-74627571D02*
X151999288Y-74627571D01*
X152142145Y-74556143D01*
X152213573Y-74484714D01*
X152356431Y-74270429D01*
X152427859Y-73984714D01*
X152427859Y-73413286D01*
X152356431Y-73270429D01*
X152285002Y-73199000D01*
X152142145Y-73127571D01*
X151856431Y-73127571D01*
X151713573Y-73199000D01*
X151642145Y-73270429D01*
X151570716Y-73413286D01*
X151570716Y-73770429D01*
X151642145Y-73913286D01*
X151713573Y-73984714D01*
X151856431Y-74056143D01*
X152142145Y-74056143D01*
X152285002Y-73984714D01*
X152356431Y-73913286D01*
X152427859Y-73770429D01*
X153927859Y-74484714D02*
X153856430Y-74556143D01*
X153642144Y-74627571D01*
X153499287Y-74627571D01*
X153285002Y-74556143D01*
X153142144Y-74413286D01*
X153070716Y-74270429D01*
X152999287Y-73984714D01*
X152999287Y-73770429D01*
X153070716Y-73484714D01*
X153142144Y-73341857D01*
X153285002Y-73199000D01*
X153499287Y-73127571D01*
X153642144Y-73127571D01*
X153856430Y-73199000D01*
X153927859Y-73270429D01*
X154856430Y-73127571D02*
X154999287Y-73127571D01*
X155142144Y-73199000D01*
X155213573Y-73270429D01*
X155285002Y-73413286D01*
X155356430Y-73699000D01*
X155356430Y-74056143D01*
X155285002Y-74341857D01*
X155213573Y-74484714D01*
X155142144Y-74556143D01*
X154999287Y-74627571D01*
X154856430Y-74627571D01*
X154713573Y-74556143D01*
X154642144Y-74484714D01*
X154570716Y-74341857D01*
X154499287Y-74056143D01*
X154499287Y-73699000D01*
X154570716Y-73413286D01*
X154642144Y-73270429D01*
X154713573Y-73199000D01*
X154856430Y-73127571D01*
X156285001Y-73127571D02*
X156427858Y-73127571D01*
X156570715Y-73199000D01*
X156642144Y-73270429D01*
X156713573Y-73413286D01*
X156785001Y-73699000D01*
X156785001Y-74056143D01*
X156713573Y-74341857D01*
X156642144Y-74484714D01*
X156570715Y-74556143D01*
X156427858Y-74627571D01*
X156285001Y-74627571D01*
X156142144Y-74556143D01*
X156070715Y-74484714D01*
X155999287Y-74341857D01*
X155927858Y-74056143D01*
X155927858Y-73699000D01*
X155999287Y-73413286D01*
X156070715Y-73270429D01*
X156142144Y-73199000D01*
X156285001Y-73127571D01*
X157427858Y-74056143D02*
X158570715Y-74056143D01*
X159356429Y-74627571D02*
X159642144Y-74627571D01*
X159785001Y-74556143D01*
X159856429Y-74484714D01*
X159999287Y-74270429D01*
X160070715Y-73984714D01*
X160070715Y-73413286D01*
X159999287Y-73270429D01*
X159927858Y-73199000D01*
X159785001Y-73127571D01*
X159499287Y-73127571D01*
X159356429Y-73199000D01*
X159285001Y-73270429D01*
X159213572Y-73413286D01*
X159213572Y-73770429D01*
X159285001Y-73913286D01*
X159356429Y-73984714D01*
X159499287Y-74056143D01*
X159785001Y-74056143D01*
X159927858Y-73984714D01*
X159999287Y-73913286D01*
X160070715Y-73770429D01*
X161213572Y-73841857D02*
X160713572Y-73841857D01*
X160713572Y-74627571D02*
X160713572Y-73127571D01*
X161427858Y-73127571D01*
X162499286Y-73841857D02*
X161999286Y-73841857D01*
X161999286Y-74627571D02*
X161999286Y-73127571D01*
X162713572Y-73127571D01*
X163785000Y-73841857D02*
X163285000Y-73841857D01*
X163285000Y-74627571D02*
X163285000Y-73127571D01*
X163999286Y-73127571D01*
X142499286Y-75677571D02*
X142999286Y-77177571D01*
X143499286Y-75677571D01*
X145999286Y-77177571D02*
X145499286Y-76463286D01*
X145142143Y-77177571D02*
X145142143Y-75677571D01*
X145713571Y-75677571D01*
X145856429Y-75749000D01*
X145927857Y-75820429D01*
X145999286Y-75963286D01*
X145999286Y-76177571D01*
X145927857Y-76320429D01*
X145856429Y-76391857D01*
X145713571Y-76463286D01*
X145142143Y-76463286D01*
X147713571Y-75606143D02*
X146427857Y-77534714D01*
X148070715Y-75677571D02*
X148427858Y-77177571D01*
X148713572Y-76106143D01*
X148999286Y-77177571D01*
X149356429Y-75677571D01*
X147856429Y-75419000D02*
X149570715Y-75419000D01*
X150856429Y-76177571D02*
X151427858Y-76177571D01*
X151070715Y-77177571D02*
X151070715Y-75891857D01*
X151142143Y-75749000D01*
X151285001Y-75677571D01*
X151427858Y-75677571D01*
X152142144Y-77177571D02*
X151999286Y-77106143D01*
X151927858Y-77034714D01*
X151856429Y-76891857D01*
X151856429Y-76463286D01*
X151927858Y-76320429D01*
X151999286Y-76249000D01*
X152142144Y-76177571D01*
X152356429Y-76177571D01*
X152499286Y-76249000D01*
X152570715Y-76320429D01*
X152642144Y-76463286D01*
X152642144Y-76891857D01*
X152570715Y-77034714D01*
X152499286Y-77106143D01*
X152356429Y-77177571D01*
X152142144Y-77177571D01*
X153285001Y-77177571D02*
X153285001Y-76177571D01*
X153285001Y-76463286D02*
X153356429Y-76320429D01*
X153427858Y-76249000D01*
X153570715Y-76177571D01*
X153713572Y-76177571D01*
X156213572Y-77177571D02*
X155713572Y-76463286D01*
X155356429Y-77177571D02*
X155356429Y-75677571D01*
X155927857Y-75677571D01*
X156070715Y-75749000D01*
X156142143Y-75820429D01*
X156213572Y-75963286D01*
X156213572Y-76177571D01*
X156142143Y-76320429D01*
X156070715Y-76391857D01*
X155927857Y-76463286D01*
X155356429Y-76463286D01*
X156785000Y-76749000D02*
X157499286Y-76749000D01*
X156642143Y-77177571D02*
X157142143Y-75677571D01*
X157642143Y-77177571D01*
X158142143Y-77177571D02*
X158142143Y-75677571D01*
X158642143Y-76749000D01*
X159142143Y-75677571D01*
X159142143Y-77177571D01*
X160856429Y-75677571D02*
X161213572Y-77177571D01*
X161499286Y-76106143D01*
X161785000Y-77177571D01*
X162142143Y-75677571D01*
X162713572Y-76391857D02*
X163213572Y-76391857D01*
X163427858Y-77177571D02*
X162713572Y-77177571D01*
X162713572Y-75677571D01*
X163427858Y-75677571D01*
X160642143Y-75419000D02*
X163713572Y-75419000D01*
X113019983Y-48564100D02*
X112877126Y-48492671D01*
X112662840Y-48492671D01*
X112448555Y-48564100D01*
X112305697Y-48706957D01*
X112234269Y-48849814D01*
X112162840Y-49135529D01*
X112162840Y-49349814D01*
X112234269Y-49635529D01*
X112305697Y-49778386D01*
X112448555Y-49921243D01*
X112662840Y-49992671D01*
X112805697Y-49992671D01*
X113019983Y-49921243D01*
X113091412Y-49849814D01*
X113091412Y-49349814D01*
X112805697Y-49349814D01*
X113734269Y-49992671D02*
X113734269Y-48492671D01*
X114591412Y-49992671D01*
X114591412Y-48492671D01*
X115305698Y-49992671D02*
X115305698Y-48492671D01*
X115662841Y-48492671D01*
X115877126Y-48564100D01*
X116019984Y-48706957D01*
X116091412Y-48849814D01*
X116162841Y-49135529D01*
X116162841Y-49349814D01*
X116091412Y-49635529D01*
X116019984Y-49778386D01*
X115877126Y-49921243D01*
X115662841Y-49992671D01*
X115305698Y-49992671D01*
X113754198Y-52423451D02*
X113754198Y-50923451D01*
X114111341Y-50923451D01*
X114325626Y-50994880D01*
X114468484Y-51137737D01*
X114539912Y-51280594D01*
X114611341Y-51566309D01*
X114611341Y-51780594D01*
X114539912Y-52066309D01*
X114468484Y-52209166D01*
X114325626Y-52352023D01*
X114111341Y-52423451D01*
X113754198Y-52423451D01*
X115539912Y-50923451D02*
X115682769Y-50923451D01*
X115825626Y-50994880D01*
X115897055Y-51066309D01*
X115968484Y-51209166D01*
X116039912Y-51494880D01*
X116039912Y-51852023D01*
X115968484Y-52137737D01*
X115897055Y-52280594D01*
X115825626Y-52352023D01*
X115682769Y-52423451D01*
X115539912Y-52423451D01*
X115397055Y-52352023D01*
X115325626Y-52280594D01*
X115254198Y-52137737D01*
X115182769Y-51852023D01*
X115182769Y-51494880D01*
X115254198Y-51209166D01*
X115325626Y-51066309D01*
X115397055Y-50994880D01*
X115539912Y-50923451D01*
X113782138Y-55133631D02*
X113782138Y-53633631D01*
X114139281Y-53633631D01*
X114353566Y-53705060D01*
X114496424Y-53847917D01*
X114567852Y-53990774D01*
X114639281Y-54276489D01*
X114639281Y-54490774D01*
X114567852Y-54776489D01*
X114496424Y-54919346D01*
X114353566Y-55062203D01*
X114139281Y-55133631D01*
X113782138Y-55133631D01*
X116067852Y-55133631D02*
X115210709Y-55133631D01*
X115639281Y-55133631D02*
X115639281Y-53633631D01*
X115496424Y-53847917D01*
X115353566Y-53990774D01*
X115210709Y-54062203D01*
X113754198Y-57704111D02*
X113754198Y-56204111D01*
X114111341Y-56204111D01*
X114325626Y-56275540D01*
X114468484Y-56418397D01*
X114539912Y-56561254D01*
X114611341Y-56846969D01*
X114611341Y-57061254D01*
X114539912Y-57346969D01*
X114468484Y-57489826D01*
X114325626Y-57632683D01*
X114111341Y-57704111D01*
X113754198Y-57704111D01*
X115182769Y-56346969D02*
X115254198Y-56275540D01*
X115397055Y-56204111D01*
X115754198Y-56204111D01*
X115897055Y-56275540D01*
X115968484Y-56346969D01*
X116039912Y-56489826D01*
X116039912Y-56632683D01*
X115968484Y-56846969D01*
X115111341Y-57704111D01*
X116039912Y-57704111D01*
X113726258Y-60190771D02*
X113726258Y-58690771D01*
X114083401Y-58690771D01*
X114297686Y-58762200D01*
X114440544Y-58905057D01*
X114511972Y-59047914D01*
X114583401Y-59333629D01*
X114583401Y-59547914D01*
X114511972Y-59833629D01*
X114440544Y-59976486D01*
X114297686Y-60119343D01*
X114083401Y-60190771D01*
X113726258Y-60190771D01*
X115083401Y-58690771D02*
X116011972Y-58690771D01*
X115511972Y-59262200D01*
X115726258Y-59262200D01*
X115869115Y-59333629D01*
X115940544Y-59405057D01*
X116011972Y-59547914D01*
X116011972Y-59905057D01*
X115940544Y-60047914D01*
X115869115Y-60119343D01*
X115726258Y-60190771D01*
X115297686Y-60190771D01*
X115154829Y-60119343D01*
X115083401Y-60047914D01*
X113642438Y-62733311D02*
X113642438Y-61233311D01*
X113999581Y-61233311D01*
X114213866Y-61304740D01*
X114356724Y-61447597D01*
X114428152Y-61590454D01*
X114499581Y-61876169D01*
X114499581Y-62090454D01*
X114428152Y-62376169D01*
X114356724Y-62519026D01*
X114213866Y-62661883D01*
X113999581Y-62733311D01*
X113642438Y-62733311D01*
X115785295Y-61733311D02*
X115785295Y-62733311D01*
X115428152Y-61161883D02*
X115071009Y-62233311D01*
X115999581Y-62233311D01*
X113558618Y-65275851D02*
X113558618Y-63775851D01*
X113915761Y-63775851D01*
X114130046Y-63847280D01*
X114272904Y-63990137D01*
X114344332Y-64132994D01*
X114415761Y-64418709D01*
X114415761Y-64632994D01*
X114344332Y-64918709D01*
X114272904Y-65061566D01*
X114130046Y-65204423D01*
X113915761Y-65275851D01*
X113558618Y-65275851D01*
X115772904Y-63775851D02*
X115058618Y-63775851D01*
X114987189Y-64490137D01*
X115058618Y-64418709D01*
X115201475Y-64347280D01*
X115558618Y-64347280D01*
X115701475Y-64418709D01*
X115772904Y-64490137D01*
X115844332Y-64632994D01*
X115844332Y-64990137D01*
X115772904Y-65132994D01*
X115701475Y-65204423D01*
X115558618Y-65275851D01*
X115201475Y-65275851D01*
X115058618Y-65204423D01*
X114987189Y-65132994D01*
X113530678Y-67846331D02*
X113530678Y-66346331D01*
X113887821Y-66346331D01*
X114102106Y-66417760D01*
X114244964Y-66560617D01*
X114316392Y-66703474D01*
X114387821Y-66989189D01*
X114387821Y-67203474D01*
X114316392Y-67489189D01*
X114244964Y-67632046D01*
X114102106Y-67774903D01*
X113887821Y-67846331D01*
X113530678Y-67846331D01*
X115673535Y-66346331D02*
X115387821Y-66346331D01*
X115244964Y-66417760D01*
X115173535Y-66489189D01*
X115030678Y-66703474D01*
X114959249Y-66989189D01*
X114959249Y-67560617D01*
X115030678Y-67703474D01*
X115102106Y-67774903D01*
X115244964Y-67846331D01*
X115530678Y-67846331D01*
X115673535Y-67774903D01*
X115744964Y-67703474D01*
X115816392Y-67560617D01*
X115816392Y-67203474D01*
X115744964Y-67060617D01*
X115673535Y-66989189D01*
X115530678Y-66917760D01*
X115244964Y-66917760D01*
X115102106Y-66989189D01*
X115030678Y-67060617D01*
X114959249Y-67203474D01*
X113474798Y-70360931D02*
X113474798Y-68860931D01*
X113831941Y-68860931D01*
X114046226Y-68932360D01*
X114189084Y-69075217D01*
X114260512Y-69218074D01*
X114331941Y-69503789D01*
X114331941Y-69718074D01*
X114260512Y-70003789D01*
X114189084Y-70146646D01*
X114046226Y-70289503D01*
X113831941Y-70360931D01*
X113474798Y-70360931D01*
X114831941Y-68860931D02*
X115831941Y-68860931D01*
X115189084Y-70360931D01*
X111080955Y-72173637D02*
X111295241Y-72245066D01*
X111366669Y-72316494D01*
X111438098Y-72459351D01*
X111438098Y-72673637D01*
X111366669Y-72816494D01*
X111295241Y-72887923D01*
X111152383Y-72959351D01*
X110580955Y-72959351D01*
X110580955Y-71459351D01*
X111080955Y-71459351D01*
X111223812Y-71530780D01*
X111295241Y-71602209D01*
X111366669Y-71745066D01*
X111366669Y-71887923D01*
X111295241Y-72030780D01*
X111223812Y-72102209D01*
X111080955Y-72173637D01*
X110580955Y-72173637D01*
X112795241Y-72959351D02*
X112080955Y-72959351D01*
X112080955Y-71459351D01*
X113295241Y-72959351D02*
X113295241Y-71459351D01*
X114152384Y-72959351D02*
X113509527Y-72102209D01*
X114152384Y-71459351D02*
X113295241Y-72316494D01*
X115580955Y-72959351D02*
X114723812Y-72959351D01*
X115152384Y-72959351D02*
X115152384Y-71459351D01*
X115009527Y-71673637D01*
X114866669Y-71816494D01*
X114723812Y-71887923D01*
X110223812Y-71200780D02*
X115866669Y-71200780D01*
X111080955Y-74632357D02*
X111295241Y-74703786D01*
X111366669Y-74775214D01*
X111438098Y-74918071D01*
X111438098Y-75132357D01*
X111366669Y-75275214D01*
X111295241Y-75346643D01*
X111152383Y-75418071D01*
X110580955Y-75418071D01*
X110580955Y-73918071D01*
X111080955Y-73918071D01*
X111223812Y-73989500D01*
X111295241Y-74060929D01*
X111366669Y-74203786D01*
X111366669Y-74346643D01*
X111295241Y-74489500D01*
X111223812Y-74560929D01*
X111080955Y-74632357D01*
X110580955Y-74632357D01*
X112795241Y-75418071D02*
X112080955Y-75418071D01*
X112080955Y-73918071D01*
X113295241Y-75418071D02*
X113295241Y-73918071D01*
X114152384Y-75418071D02*
X113509527Y-74560929D01*
X114152384Y-73918071D02*
X113295241Y-74775214D01*
X114723812Y-74060929D02*
X114795241Y-73989500D01*
X114938098Y-73918071D01*
X115295241Y-73918071D01*
X115438098Y-73989500D01*
X115509527Y-74060929D01*
X115580955Y-74203786D01*
X115580955Y-74346643D01*
X115509527Y-74560929D01*
X114652384Y-75418071D01*
X115580955Y-75418071D01*
X110223812Y-73659500D02*
X115866669Y-73659500D01*
X111108895Y-77202837D02*
X111323181Y-77274266D01*
X111394609Y-77345694D01*
X111466038Y-77488551D01*
X111466038Y-77702837D01*
X111394609Y-77845694D01*
X111323181Y-77917123D01*
X111180323Y-77988551D01*
X110608895Y-77988551D01*
X110608895Y-76488551D01*
X111108895Y-76488551D01*
X111251752Y-76559980D01*
X111323181Y-76631409D01*
X111394609Y-76774266D01*
X111394609Y-76917123D01*
X111323181Y-77059980D01*
X111251752Y-77131409D01*
X111108895Y-77202837D01*
X110608895Y-77202837D01*
X112823181Y-77988551D02*
X112108895Y-77988551D01*
X112108895Y-76488551D01*
X113323181Y-77988551D02*
X113323181Y-76488551D01*
X114180324Y-77988551D02*
X113537467Y-77131409D01*
X114180324Y-76488551D02*
X113323181Y-77345694D01*
X114680324Y-76488551D02*
X115608895Y-76488551D01*
X115108895Y-77059980D01*
X115323181Y-77059980D01*
X115466038Y-77131409D01*
X115537467Y-77202837D01*
X115608895Y-77345694D01*
X115608895Y-77702837D01*
X115537467Y-77845694D01*
X115466038Y-77917123D01*
X115323181Y-77988551D01*
X114894609Y-77988551D01*
X114751752Y-77917123D01*
X114680324Y-77845694D01*
X110251752Y-76229980D02*
X115894609Y-76229980D01*
X111080955Y-79745377D02*
X111295241Y-79816806D01*
X111366669Y-79888234D01*
X111438098Y-80031091D01*
X111438098Y-80245377D01*
X111366669Y-80388234D01*
X111295241Y-80459663D01*
X111152383Y-80531091D01*
X110580955Y-80531091D01*
X110580955Y-79031091D01*
X111080955Y-79031091D01*
X111223812Y-79102520D01*
X111295241Y-79173949D01*
X111366669Y-79316806D01*
X111366669Y-79459663D01*
X111295241Y-79602520D01*
X111223812Y-79673949D01*
X111080955Y-79745377D01*
X110580955Y-79745377D01*
X112795241Y-80531091D02*
X112080955Y-80531091D01*
X112080955Y-79031091D01*
X113295241Y-80531091D02*
X113295241Y-79031091D01*
X114152384Y-80531091D02*
X113509527Y-79673949D01*
X114152384Y-79031091D02*
X113295241Y-79888234D01*
X115509527Y-79031091D02*
X114795241Y-79031091D01*
X114723812Y-79745377D01*
X114795241Y-79673949D01*
X114938098Y-79602520D01*
X115295241Y-79602520D01*
X115438098Y-79673949D01*
X115509527Y-79745377D01*
X115580955Y-79888234D01*
X115580955Y-80245377D01*
X115509527Y-80388234D01*
X115438098Y-80459663D01*
X115295241Y-80531091D01*
X114938098Y-80531091D01*
X114795241Y-80459663D01*
X114723812Y-80388234D01*
X110223812Y-78772520D02*
X115866669Y-78772520D01*
X111546701Y-83073631D02*
X111046701Y-82359346D01*
X110689558Y-83073631D02*
X110689558Y-81573631D01*
X111260986Y-81573631D01*
X111403844Y-81645060D01*
X111475272Y-81716489D01*
X111546701Y-81859346D01*
X111546701Y-82073631D01*
X111475272Y-82216489D01*
X111403844Y-82287917D01*
X111260986Y-82359346D01*
X110689558Y-82359346D01*
X112118129Y-82645060D02*
X112832415Y-82645060D01*
X111975272Y-83073631D02*
X112475272Y-81573631D01*
X112975272Y-83073631D01*
X113475272Y-83073631D02*
X113475272Y-81573631D01*
X113975272Y-82645060D01*
X114475272Y-81573631D01*
X114475272Y-83073631D01*
X115975272Y-83073631D02*
X115118129Y-83073631D01*
X115546701Y-83073631D02*
X115546701Y-81573631D01*
X115403844Y-81787917D01*
X115260986Y-81930774D01*
X115118129Y-82002203D01*
X110332415Y-81315060D02*
X116260986Y-81315060D01*
X111490821Y-85616171D02*
X110990821Y-84901886D01*
X110633678Y-85616171D02*
X110633678Y-84116171D01*
X111205106Y-84116171D01*
X111347964Y-84187600D01*
X111419392Y-84259029D01*
X111490821Y-84401886D01*
X111490821Y-84616171D01*
X111419392Y-84759029D01*
X111347964Y-84830457D01*
X111205106Y-84901886D01*
X110633678Y-84901886D01*
X112062249Y-85187600D02*
X112776535Y-85187600D01*
X111919392Y-85616171D02*
X112419392Y-84116171D01*
X112919392Y-85616171D01*
X113419392Y-85616171D02*
X113419392Y-84116171D01*
X113919392Y-85187600D01*
X114419392Y-84116171D01*
X114419392Y-85616171D01*
X115062249Y-84259029D02*
X115133678Y-84187600D01*
X115276535Y-84116171D01*
X115633678Y-84116171D01*
X115776535Y-84187600D01*
X115847964Y-84259029D01*
X115919392Y-84401886D01*
X115919392Y-84544743D01*
X115847964Y-84759029D01*
X114990821Y-85616171D01*
X115919392Y-85616171D01*
X110276535Y-83857600D02*
X116205106Y-83857600D01*
X111518761Y-88102831D02*
X111018761Y-87388546D01*
X110661618Y-88102831D02*
X110661618Y-86602831D01*
X111233046Y-86602831D01*
X111375904Y-86674260D01*
X111447332Y-86745689D01*
X111518761Y-86888546D01*
X111518761Y-87102831D01*
X111447332Y-87245689D01*
X111375904Y-87317117D01*
X111233046Y-87388546D01*
X110661618Y-87388546D01*
X112090189Y-87674260D02*
X112804475Y-87674260D01*
X111947332Y-88102831D02*
X112447332Y-86602831D01*
X112947332Y-88102831D01*
X113447332Y-88102831D02*
X113447332Y-86602831D01*
X113947332Y-87674260D01*
X114447332Y-86602831D01*
X114447332Y-88102831D01*
X115018761Y-86602831D02*
X115947332Y-86602831D01*
X115447332Y-87174260D01*
X115661618Y-87174260D01*
X115804475Y-87245689D01*
X115875904Y-87317117D01*
X115947332Y-87459974D01*
X115947332Y-87817117D01*
X115875904Y-87959974D01*
X115804475Y-88031403D01*
X115661618Y-88102831D01*
X115233046Y-88102831D01*
X115090189Y-88031403D01*
X115018761Y-87959974D01*
X110304475Y-86344260D02*
X116233046Y-86344260D01*
X109078034Y-89201251D02*
X109578034Y-90701251D01*
X110078034Y-89201251D01*
X112578034Y-90701251D02*
X112078034Y-89986966D01*
X111720891Y-90701251D02*
X111720891Y-89201251D01*
X112292319Y-89201251D01*
X112435177Y-89272680D01*
X112506605Y-89344109D01*
X112578034Y-89486966D01*
X112578034Y-89701251D01*
X112506605Y-89844109D01*
X112435177Y-89915537D01*
X112292319Y-89986966D01*
X111720891Y-89986966D01*
X114292319Y-89129823D02*
X113006605Y-91058394D01*
X114649463Y-89201251D02*
X115006606Y-90701251D01*
X115292320Y-89629823D01*
X115578034Y-90701251D01*
X115935177Y-89201251D01*
X114435177Y-88942680D02*
X116149463Y-88942680D01*
X109856900Y-93118714D02*
X109785471Y-93190143D01*
X109571185Y-93261571D01*
X109428328Y-93261571D01*
X109214043Y-93190143D01*
X109071185Y-93047286D01*
X108999757Y-92904429D01*
X108928328Y-92618714D01*
X108928328Y-92404429D01*
X108999757Y-92118714D01*
X109071185Y-91975857D01*
X109214043Y-91833000D01*
X109428328Y-91761571D01*
X109571185Y-91761571D01*
X109785471Y-91833000D01*
X109856900Y-91904429D01*
X112499757Y-93261571D02*
X111999757Y-92547286D01*
X111642614Y-93261571D02*
X111642614Y-91761571D01*
X112214042Y-91761571D01*
X112356900Y-91833000D01*
X112428328Y-91904429D01*
X112499757Y-92047286D01*
X112499757Y-92261571D01*
X112428328Y-92404429D01*
X112356900Y-92475857D01*
X112214042Y-92547286D01*
X111642614Y-92547286D01*
X114214042Y-91690143D02*
X112928328Y-93618714D01*
X114571186Y-91761571D02*
X114928329Y-93261571D01*
X115214043Y-92190143D01*
X115499757Y-93261571D01*
X115856900Y-91761571D01*
X114356900Y-91503000D02*
X116071186Y-91503000D01*
X112627126Y-95786331D02*
X112627126Y-94286331D01*
X114198555Y-95786331D02*
X113698555Y-95072046D01*
X113341412Y-95786331D02*
X113341412Y-94286331D01*
X113912840Y-94286331D01*
X114055698Y-94357760D01*
X114127126Y-94429189D01*
X114198555Y-94572046D01*
X114198555Y-94786331D01*
X114127126Y-94929189D01*
X114055698Y-95000617D01*
X113912840Y-95072046D01*
X113341412Y-95072046D01*
X115841412Y-95929189D02*
X115698555Y-95857760D01*
X115555698Y-95714903D01*
X115341412Y-95500617D01*
X115198555Y-95429189D01*
X115055698Y-95429189D01*
X115127126Y-95786331D02*
X114984269Y-95714903D01*
X114841412Y-95572046D01*
X114769983Y-95286331D01*
X114769983Y-94786331D01*
X114841412Y-94500617D01*
X114984269Y-94357760D01*
X115127126Y-94286331D01*
X115412840Y-94286331D01*
X115555698Y-94357760D01*
X115698555Y-94500617D01*
X115769983Y-94786331D01*
X115769983Y-95286331D01*
X115698555Y-95572046D01*
X115555698Y-95714903D01*
X115412840Y-95786331D01*
X115127126Y-95786331D01*
X112269983Y-94027760D02*
X116055698Y-94027760D01*
X112740583Y-96844420D02*
X112597726Y-96772991D01*
X112383440Y-96772991D01*
X112169155Y-96844420D01*
X112026297Y-96987277D01*
X111954869Y-97130134D01*
X111883440Y-97415849D01*
X111883440Y-97630134D01*
X111954869Y-97915849D01*
X112026297Y-98058706D01*
X112169155Y-98201563D01*
X112383440Y-98272991D01*
X112526297Y-98272991D01*
X112740583Y-98201563D01*
X112812012Y-98130134D01*
X112812012Y-97630134D01*
X112526297Y-97630134D01*
X113454869Y-98272991D02*
X113454869Y-96772991D01*
X114312012Y-98272991D01*
X114312012Y-96772991D01*
X115026298Y-98272991D02*
X115026298Y-96772991D01*
X115383441Y-96772991D01*
X115597726Y-96844420D01*
X115740584Y-96987277D01*
X115812012Y-97130134D01*
X115883441Y-97415849D01*
X115883441Y-97630134D01*
X115812012Y-97915849D01*
X115740584Y-98058706D01*
X115597726Y-98201563D01*
X115383441Y-98272991D01*
X115026298Y-98272991D01*
X125060189Y-98468571D02*
X124560189Y-97754286D01*
X124203046Y-98468571D02*
X124203046Y-96968571D01*
X124774474Y-96968571D01*
X124917332Y-97040000D01*
X124988760Y-97111429D01*
X125060189Y-97254286D01*
X125060189Y-97468571D01*
X124988760Y-97611429D01*
X124917332Y-97682857D01*
X124774474Y-97754286D01*
X124203046Y-97754286D01*
X125703046Y-97682857D02*
X126203046Y-97682857D01*
X126417332Y-98468571D02*
X125703046Y-98468571D01*
X125703046Y-96968571D01*
X126417332Y-96968571D01*
X126988760Y-98397143D02*
X127203046Y-98468571D01*
X127560189Y-98468571D01*
X127703046Y-98397143D01*
X127774475Y-98325714D01*
X127845903Y-98182857D01*
X127845903Y-98040000D01*
X127774475Y-97897143D01*
X127703046Y-97825714D01*
X127560189Y-97754286D01*
X127274475Y-97682857D01*
X127131617Y-97611429D01*
X127060189Y-97540000D01*
X126988760Y-97397143D01*
X126988760Y-97254286D01*
X127060189Y-97111429D01*
X127131617Y-97040000D01*
X127274475Y-96968571D01*
X127631617Y-96968571D01*
X127845903Y-97040000D01*
X128488760Y-97682857D02*
X128988760Y-97682857D01*
X129203046Y-98468571D02*
X128488760Y-98468571D01*
X128488760Y-96968571D01*
X129203046Y-96968571D01*
X129631617Y-96968571D02*
X130488760Y-96968571D01*
X130060189Y-98468571D02*
X130060189Y-96968571D01*
X123845903Y-96710000D02*
X130631617Y-96710000D01*
X124143023Y-95898091D02*
X124143023Y-94398091D01*
X125000166Y-95898091D01*
X125000166Y-94398091D01*
X125714452Y-95898091D02*
X125714452Y-94398091D01*
X126214452Y-95469520D01*
X126714452Y-94398091D01*
X126714452Y-95898091D01*
X127428738Y-95898091D02*
X127428738Y-94398091D01*
X123785880Y-94139520D02*
X127785881Y-94139520D01*
X123829737Y-93205383D02*
X124044023Y-93276811D01*
X124401166Y-93276811D01*
X124544023Y-93205383D01*
X124615452Y-93133954D01*
X124686880Y-92991097D01*
X124686880Y-92848240D01*
X124615452Y-92705383D01*
X124544023Y-92633954D01*
X124401166Y-92562526D01*
X124115452Y-92491097D01*
X123972594Y-92419669D01*
X123901166Y-92348240D01*
X123829737Y-92205383D01*
X123829737Y-92062526D01*
X123901166Y-91919669D01*
X123972594Y-91848240D01*
X124115452Y-91776811D01*
X124472594Y-91776811D01*
X124686880Y-91848240D01*
X126472594Y-93276811D02*
X126472594Y-91776811D01*
X127044022Y-91776811D01*
X127186880Y-91848240D01*
X127258308Y-91919669D01*
X127329737Y-92062526D01*
X127329737Y-92276811D01*
X127258308Y-92419669D01*
X127186880Y-92491097D01*
X127044022Y-92562526D01*
X126472594Y-92562526D01*
X127972594Y-93276811D02*
X127972594Y-91776811D01*
X127972594Y-92491097D02*
X128829737Y-92491097D01*
X128829737Y-93276811D02*
X128829737Y-91776811D01*
X129544023Y-93276811D02*
X129544023Y-91776811D01*
X130186880Y-91919669D02*
X130258309Y-91848240D01*
X130401166Y-91776811D01*
X130758309Y-91776811D01*
X130901166Y-91848240D01*
X130972595Y-91919669D01*
X131044023Y-92062526D01*
X131044023Y-92205383D01*
X130972595Y-92419669D01*
X130115452Y-93276811D01*
X131044023Y-93276811D01*
X124170726Y-90701251D02*
X124170726Y-89201251D01*
X125956440Y-89129823D02*
X124670726Y-91058394D01*
X126742155Y-89201251D02*
X127027869Y-89201251D01*
X127170727Y-89272680D01*
X127313584Y-89415537D01*
X127385012Y-89701251D01*
X127385012Y-90201251D01*
X127313584Y-90486966D01*
X127170727Y-90629823D01*
X127027869Y-90701251D01*
X126742155Y-90701251D01*
X126599298Y-90629823D01*
X126456441Y-90486966D01*
X126385012Y-90201251D01*
X126385012Y-89701251D01*
X126456441Y-89415537D01*
X126599298Y-89272680D01*
X126742155Y-89201251D01*
X127885013Y-89201251D02*
X128813584Y-89201251D01*
X128313584Y-89772680D01*
X128527870Y-89772680D01*
X128670727Y-89844109D01*
X128742156Y-89915537D01*
X128813584Y-90058394D01*
X128813584Y-90415537D01*
X128742156Y-90558394D01*
X128670727Y-90629823D01*
X128527870Y-90701251D01*
X128099298Y-90701251D01*
X127956441Y-90629823D01*
X127885013Y-90558394D01*
X123813583Y-88942680D02*
X129099298Y-88942680D01*
X124058966Y-88130771D02*
X124058966Y-86630771D01*
X125844680Y-86559343D02*
X124558966Y-88487914D01*
X126630395Y-86630771D02*
X126916109Y-86630771D01*
X127058967Y-86702200D01*
X127201824Y-86845057D01*
X127273252Y-87130771D01*
X127273252Y-87630771D01*
X127201824Y-87916486D01*
X127058967Y-88059343D01*
X126916109Y-88130771D01*
X126630395Y-88130771D01*
X126487538Y-88059343D01*
X126344681Y-87916486D01*
X126273252Y-87630771D01*
X126273252Y-87130771D01*
X126344681Y-86845057D01*
X126487538Y-86702200D01*
X126630395Y-86630771D01*
X127844681Y-86773629D02*
X127916110Y-86702200D01*
X128058967Y-86630771D01*
X128416110Y-86630771D01*
X128558967Y-86702200D01*
X128630396Y-86773629D01*
X128701824Y-86916486D01*
X128701824Y-87059343D01*
X128630396Y-87273629D01*
X127773253Y-88130771D01*
X128701824Y-88130771D01*
X123701823Y-86372200D02*
X128987538Y-86372200D01*
X123888406Y-85187600D02*
X124602692Y-85187600D01*
X123745549Y-85616171D02*
X124245549Y-84116171D01*
X124745549Y-85616171D01*
X126031263Y-85616171D02*
X125174120Y-85616171D01*
X125602692Y-85616171D02*
X125602692Y-84116171D01*
X125459835Y-84330457D01*
X125316977Y-84473314D01*
X125174120Y-84544743D01*
X126531263Y-84116171D02*
X127459834Y-84116171D01*
X126959834Y-84687600D01*
X127174120Y-84687600D01*
X127316977Y-84759029D01*
X127388406Y-84830457D01*
X127459834Y-84973314D01*
X127459834Y-85330457D01*
X127388406Y-85473314D01*
X127316977Y-85544743D01*
X127174120Y-85616171D01*
X126745548Y-85616171D01*
X126602691Y-85544743D01*
X126531263Y-85473314D01*
X123888406Y-82617120D02*
X124602692Y-82617120D01*
X123745549Y-83045691D02*
X124245549Y-81545691D01*
X124745549Y-83045691D01*
X126031263Y-83045691D02*
X125174120Y-83045691D01*
X125602692Y-83045691D02*
X125602692Y-81545691D01*
X125459835Y-81759977D01*
X125316977Y-81902834D01*
X125174120Y-81974263D01*
X126602691Y-81688549D02*
X126674120Y-81617120D01*
X126816977Y-81545691D01*
X127174120Y-81545691D01*
X127316977Y-81617120D01*
X127388406Y-81688549D01*
X127459834Y-81831406D01*
X127459834Y-81974263D01*
X127388406Y-82188549D01*
X126531263Y-83045691D01*
X127459834Y-83045691D01*
X123888406Y-80046640D02*
X124602692Y-80046640D01*
X123745549Y-80475211D02*
X124245549Y-78975211D01*
X124745549Y-80475211D01*
X126031263Y-80475211D02*
X125174120Y-80475211D01*
X125602692Y-80475211D02*
X125602692Y-78975211D01*
X125459835Y-79189497D01*
X125316977Y-79332354D01*
X125174120Y-79403783D01*
X127459834Y-80475211D02*
X126602691Y-80475211D01*
X127031263Y-80475211D02*
X127031263Y-78975211D01*
X126888406Y-79189497D01*
X126745548Y-79332354D01*
X126602691Y-79403783D01*
X123860466Y-77532040D02*
X124574752Y-77532040D01*
X123717609Y-77960611D02*
X124217609Y-76460611D01*
X124717609Y-77960611D01*
X126003323Y-77960611D02*
X125146180Y-77960611D01*
X125574752Y-77960611D02*
X125574752Y-76460611D01*
X125431895Y-76674897D01*
X125289037Y-76817754D01*
X125146180Y-76889183D01*
X126931894Y-76460611D02*
X127074751Y-76460611D01*
X127217608Y-76532040D01*
X127289037Y-76603469D01*
X127360466Y-76746326D01*
X127431894Y-77032040D01*
X127431894Y-77389183D01*
X127360466Y-77674897D01*
X127289037Y-77817754D01*
X127217608Y-77889183D01*
X127074751Y-77960611D01*
X126931894Y-77960611D01*
X126789037Y-77889183D01*
X126717608Y-77817754D01*
X126646180Y-77674897D01*
X126574751Y-77389183D01*
X126574751Y-77032040D01*
X126646180Y-76746326D01*
X126717608Y-76603469D01*
X126789037Y-76532040D01*
X126931894Y-76460611D01*
X123876252Y-75017440D02*
X124590538Y-75017440D01*
X123733395Y-75446011D02*
X124233395Y-73946011D01*
X124733395Y-75446011D01*
X125304823Y-75446011D02*
X125590538Y-75446011D01*
X125733395Y-75374583D01*
X125804823Y-75303154D01*
X125947681Y-75088869D01*
X126019109Y-74803154D01*
X126019109Y-74231726D01*
X125947681Y-74088869D01*
X125876252Y-74017440D01*
X125733395Y-73946011D01*
X125447681Y-73946011D01*
X125304823Y-74017440D01*
X125233395Y-74088869D01*
X125161966Y-74231726D01*
X125161966Y-74588869D01*
X125233395Y-74731726D01*
X125304823Y-74803154D01*
X125447681Y-74874583D01*
X125733395Y-74874583D01*
X125876252Y-74803154D01*
X125947681Y-74731726D01*
X126019109Y-74588869D01*
X123904192Y-72446960D02*
X124618478Y-72446960D01*
X123761335Y-72875531D02*
X124261335Y-71375531D01*
X124761335Y-72875531D01*
X125475621Y-72018389D02*
X125332763Y-71946960D01*
X125261335Y-71875531D01*
X125189906Y-71732674D01*
X125189906Y-71661246D01*
X125261335Y-71518389D01*
X125332763Y-71446960D01*
X125475621Y-71375531D01*
X125761335Y-71375531D01*
X125904192Y-71446960D01*
X125975621Y-71518389D01*
X126047049Y-71661246D01*
X126047049Y-71732674D01*
X125975621Y-71875531D01*
X125904192Y-71946960D01*
X125761335Y-72018389D01*
X125475621Y-72018389D01*
X125332763Y-72089817D01*
X125261335Y-72161246D01*
X125189906Y-72304103D01*
X125189906Y-72589817D01*
X125261335Y-72732674D01*
X125332763Y-72804103D01*
X125475621Y-72875531D01*
X125761335Y-72875531D01*
X125904192Y-72804103D01*
X125975621Y-72732674D01*
X126047049Y-72589817D01*
X126047049Y-72304103D01*
X125975621Y-72161246D01*
X125904192Y-72089817D01*
X125761335Y-72018389D01*
X123876252Y-69960300D02*
X124590538Y-69960300D01*
X123733395Y-70388871D02*
X124233395Y-68888871D01*
X124733395Y-70388871D01*
X125090538Y-68888871D02*
X126090538Y-68888871D01*
X125447681Y-70388871D01*
X123820372Y-67501580D02*
X124534658Y-67501580D01*
X123677515Y-67930151D02*
X124177515Y-66430151D01*
X124677515Y-67930151D01*
X125820372Y-66430151D02*
X125534658Y-66430151D01*
X125391801Y-66501580D01*
X125320372Y-66573009D01*
X125177515Y-66787294D01*
X125106086Y-67073009D01*
X125106086Y-67644437D01*
X125177515Y-67787294D01*
X125248943Y-67858723D01*
X125391801Y-67930151D01*
X125677515Y-67930151D01*
X125820372Y-67858723D01*
X125891801Y-67787294D01*
X125963229Y-67644437D01*
X125963229Y-67287294D01*
X125891801Y-67144437D01*
X125820372Y-67073009D01*
X125677515Y-67001580D01*
X125391801Y-67001580D01*
X125248943Y-67073009D01*
X125177515Y-67144437D01*
X125106086Y-67287294D01*
X123764492Y-64931100D02*
X124478778Y-64931100D01*
X123621635Y-65359671D02*
X124121635Y-63859671D01*
X124621635Y-65359671D01*
X125835921Y-63859671D02*
X125121635Y-63859671D01*
X125050206Y-64573957D01*
X125121635Y-64502529D01*
X125264492Y-64431100D01*
X125621635Y-64431100D01*
X125764492Y-64502529D01*
X125835921Y-64573957D01*
X125907349Y-64716814D01*
X125907349Y-65073957D01*
X125835921Y-65216814D01*
X125764492Y-65288243D01*
X125621635Y-65359671D01*
X125264492Y-65359671D01*
X125121635Y-65288243D01*
X125050206Y-65216814D01*
X123792432Y-62360620D02*
X124506718Y-62360620D01*
X123649575Y-62789191D02*
X124149575Y-61289191D01*
X124649575Y-62789191D01*
X125792432Y-61789191D02*
X125792432Y-62789191D01*
X125435289Y-61217763D02*
X125078146Y-62289191D01*
X126006718Y-62289191D01*
X123736552Y-59706320D02*
X124450838Y-59706320D01*
X123593695Y-60134891D02*
X124093695Y-58634891D01*
X124593695Y-60134891D01*
X124950838Y-58634891D02*
X125879409Y-58634891D01*
X125379409Y-59206320D01*
X125593695Y-59206320D01*
X125736552Y-59277749D01*
X125807981Y-59349177D01*
X125879409Y-59492034D01*
X125879409Y-59849177D01*
X125807981Y-59992034D01*
X125736552Y-60063463D01*
X125593695Y-60134891D01*
X125165123Y-60134891D01*
X125022266Y-60063463D01*
X124950838Y-59992034D01*
X123708612Y-57135840D02*
X124422898Y-57135840D01*
X123565755Y-57564411D02*
X124065755Y-56064411D01*
X124565755Y-57564411D01*
X124994326Y-56207269D02*
X125065755Y-56135840D01*
X125208612Y-56064411D01*
X125565755Y-56064411D01*
X125708612Y-56135840D01*
X125780041Y-56207269D01*
X125851469Y-56350126D01*
X125851469Y-56492983D01*
X125780041Y-56707269D01*
X124922898Y-57564411D01*
X125851469Y-57564411D01*
X123680672Y-54705060D02*
X124394958Y-54705060D01*
X123537815Y-55133631D02*
X124037815Y-53633631D01*
X124537815Y-55133631D01*
X125823529Y-55133631D02*
X124966386Y-55133631D01*
X125394958Y-55133631D02*
X125394958Y-53633631D01*
X125252101Y-53847917D01*
X125109243Y-53990774D01*
X124966386Y-54062203D01*
X123680672Y-52190460D02*
X124394958Y-52190460D01*
X123537815Y-52619031D02*
X124037815Y-51119031D01*
X124537815Y-52619031D01*
X125323529Y-51119031D02*
X125466386Y-51119031D01*
X125609243Y-51190460D01*
X125680672Y-51261889D01*
X125752101Y-51404746D01*
X125823529Y-51690460D01*
X125823529Y-52047603D01*
X125752101Y-52333317D01*
X125680672Y-52476174D01*
X125609243Y-52547603D01*
X125466386Y-52619031D01*
X125323529Y-52619031D01*
X125180672Y-52547603D01*
X125109243Y-52476174D01*
X125037815Y-52333317D01*
X124966386Y-52047603D01*
X124966386Y-51690460D01*
X125037815Y-51404746D01*
X125109243Y-51261889D01*
X125180672Y-51190460D01*
X125323529Y-51119031D01*
X123618240Y-48492671D02*
X124118240Y-49992671D01*
X124618240Y-48492671D01*
X125975383Y-49849814D02*
X125903954Y-49921243D01*
X125689668Y-49992671D01*
X125546811Y-49992671D01*
X125332526Y-49921243D01*
X125189668Y-49778386D01*
X125118240Y-49635529D01*
X125046811Y-49349814D01*
X125046811Y-49135529D01*
X125118240Y-48849814D01*
X125189668Y-48706957D01*
X125332526Y-48564100D01*
X125546811Y-48492671D01*
X125689668Y-48492671D01*
X125903954Y-48564100D01*
X125975383Y-48635529D01*
X127475383Y-49849814D02*
X127403954Y-49921243D01*
X127189668Y-49992671D01*
X127046811Y-49992671D01*
X126832526Y-49921243D01*
X126689668Y-49778386D01*
X126618240Y-49635529D01*
X126546811Y-49349814D01*
X126546811Y-49135529D01*
X126618240Y-48849814D01*
X126689668Y-48706957D01*
X126832526Y-48564100D01*
X127046811Y-48492671D01*
X127189668Y-48492671D01*
X127403954Y-48564100D01*
X127475383Y-48635529D01*
D12*
X165576560Y-135920800D02*
X165976560Y-135920800D01*
X117288000Y-98942200D02*
X122488000Y-98942200D01*
X117288000Y-50622200D02*
X117288000Y-98942200D01*
X122488000Y-48022200D02*
X122488000Y-98942200D01*
X117288000Y-50622200D02*
X119888000Y-50622200D01*
X119888000Y-50622200D02*
X119888000Y-48022200D01*
X119888000Y-48022200D02*
X122488000Y-48022200D01*
X117288000Y-49352200D02*
X117288000Y-48022200D01*
X117288000Y-48022200D02*
X118618000Y-48022200D01*
D13*
M02*
