%FSLAX45Y45*%
G04 Gerber Fmt 4.5, Leading zero omitted, Abs format (unit mm)*
G04 Created by KiCad (PCBNEW 4.0.7) date 07/15/18 20:55:24*
%MOMM*%
%LPD*%
G01*
G04 APERTURE LIST*
%ADD10C,0.127000*%
%ADD11C,0.150000*%
%ADD12C,0.200000*%
%ADD13C,0.300000*%
G04 APERTURE END LIST*
D10*
D11*
X7614158Y-14453946D02*
G75*
G03X7714158Y-14553946I100000J0D01*
G01*
X16594150Y-14553946D02*
G75*
G03X16694150Y-14453946I0J100000D01*
G01*
X15758160Y-14553946D02*
X16594150Y-14553946D01*
X9030208Y-14553946D02*
X15654528Y-14553946D01*
X9030208Y-13618464D02*
X9030208Y-14553946D01*
X8936736Y-13618464D02*
X9030208Y-13618464D01*
X8936736Y-14553946D02*
X8936736Y-13618464D01*
X15758160Y-13624560D02*
X15758160Y-14553946D01*
X15654528Y-13624560D02*
X15758160Y-13624560D01*
X15654528Y-14553946D02*
X15654528Y-13624560D01*
X7614158Y-3804920D02*
X7614158Y-14453946D01*
X16694150Y-3804920D02*
X7614158Y-3804920D01*
X16694150Y-14453946D02*
X16694150Y-3804920D01*
X7714158Y-14553946D02*
X8936736Y-14553946D01*
D12*
X8504494Y-9482394D02*
X8544494Y-9522394D01*
X8544494Y-9482394D02*
X8504494Y-9522394D01*
X8697280Y-9236522D02*
X8737280Y-9276522D01*
X8737280Y-9236522D02*
X8697280Y-9276522D01*
X8890066Y-8973886D02*
X8930066Y-9013886D01*
X8930066Y-8973886D02*
X8890066Y-9013886D01*
X9080058Y-8728014D02*
X9120058Y-8768014D01*
X9120058Y-8728014D02*
X9080058Y-8768014D01*
X9272844Y-8465378D02*
X9312844Y-8505378D01*
X9312844Y-8465378D02*
X9272844Y-8505378D01*
X9460042Y-8225094D02*
X9500042Y-8265094D01*
X9500042Y-8225094D02*
X9460042Y-8265094D01*
X9655622Y-7968046D02*
X9695622Y-8008046D01*
X9695622Y-7968046D02*
X9655622Y-8008046D01*
X9842820Y-7702616D02*
X9882820Y-7742616D01*
X9882820Y-7702616D02*
X9842820Y-7742616D01*
X10018842Y-7465126D02*
X10058842Y-7505126D01*
X10058842Y-7465126D02*
X10018842Y-7505126D01*
X10214422Y-7202490D02*
X10254422Y-7242490D01*
X10254422Y-7202490D02*
X10214422Y-7242490D01*
X10398826Y-6939854D02*
X10438826Y-6979854D01*
X10438826Y-6939854D02*
X10398826Y-6979854D01*
X10558084Y-6699570D02*
X10598084Y-6739570D01*
X10598084Y-6699570D02*
X10558084Y-6739570D01*
X10722930Y-6431346D02*
X10762930Y-6471346D01*
X10762930Y-6431346D02*
X10722930Y-6471346D01*
X10879394Y-6185474D02*
X10919394Y-6225474D01*
X10919394Y-6185474D02*
X10879394Y-6225474D01*
X11038652Y-5939602D02*
X11078652Y-5979602D01*
X11078652Y-5939602D02*
X11038652Y-5979602D01*
X11206292Y-5674172D02*
X11246292Y-5714172D01*
X11246292Y-5674172D02*
X11206292Y-5714172D01*
X11359962Y-5442270D02*
X11399962Y-5482270D01*
X11399962Y-5442270D02*
X11359962Y-5482270D01*
X11522014Y-5160076D02*
X11562014Y-5200076D01*
X11562014Y-5160076D02*
X11522014Y-5200076D01*
X12094276Y-4535236D02*
X12134276Y-4575236D01*
X12134276Y-4535236D02*
X12094276Y-4575236D01*
X11911800Y-4935220D02*
G75*
G03X11911800Y-4935220I-50000J0D01*
G01*
X11911800Y-5189220D02*
G75*
G03X11911800Y-5189220I-50000J0D01*
G01*
X11911800Y-5443220D02*
G75*
G03X11911800Y-5443220I-50000J0D01*
G01*
X11911800Y-5697220D02*
G75*
G03X11911800Y-5697220I-50000J0D01*
G01*
X11911800Y-5951220D02*
G75*
G03X11911800Y-5951220I-50000J0D01*
G01*
X11911800Y-6205220D02*
G75*
G03X11911800Y-6205220I-50000J0D01*
G01*
X11911800Y-6459220D02*
G75*
G03X11911800Y-6459220I-50000J0D01*
G01*
X11911800Y-6713220D02*
G75*
G03X11911800Y-6713220I-50000J0D01*
G01*
X11911800Y-6967220D02*
G75*
G03X11911800Y-6967220I-50000J0D01*
G01*
X11911800Y-7221220D02*
G75*
G03X11911800Y-7221220I-50000J0D01*
G01*
X11911800Y-7475220D02*
G75*
G03X11911800Y-7475220I-50000J0D01*
G01*
X11911800Y-7729220D02*
G75*
G03X11911800Y-7729220I-50000J0D01*
G01*
X11911800Y-7983220D02*
G75*
G03X11911800Y-7983220I-50000J0D01*
G01*
X11911800Y-8237220D02*
G75*
G03X11911800Y-8237220I-50000J0D01*
G01*
X11911800Y-8491220D02*
G75*
G03X11911800Y-8491220I-50000J0D01*
G01*
X11911800Y-8745220D02*
G75*
G03X11911800Y-8745220I-50000J0D01*
G01*
X11911800Y-8999220D02*
G75*
G03X11911800Y-8999220I-50000J0D01*
G01*
X11911800Y-9253220D02*
G75*
G03X11911800Y-9253220I-50000J0D01*
G01*
X11911800Y-9507220D02*
G75*
G03X11911800Y-9507220I-50000J0D01*
G01*
X11911800Y-9761220D02*
G75*
G03X11911800Y-9761220I-50000J0D01*
G01*
X12165800Y-4935220D02*
G75*
G03X12165800Y-4935220I-50000J0D01*
G01*
X12165800Y-5189220D02*
G75*
G03X12165800Y-5189220I-50000J0D01*
G01*
X12165800Y-5443220D02*
G75*
G03X12165800Y-5443220I-50000J0D01*
G01*
X12165800Y-5697220D02*
G75*
G03X12165800Y-5697220I-50000J0D01*
G01*
X12165800Y-5951220D02*
G75*
G03X12165800Y-5951220I-50000J0D01*
G01*
X12165800Y-6205220D02*
G75*
G03X12165800Y-6205220I-50000J0D01*
G01*
X12165800Y-6459220D02*
G75*
G03X12165800Y-6459220I-50000J0D01*
G01*
X12165800Y-6713220D02*
G75*
G03X12165800Y-6713220I-50000J0D01*
G01*
X12165800Y-6967220D02*
G75*
G03X12165800Y-6967220I-50000J0D01*
G01*
X12165800Y-7221220D02*
G75*
G03X12165800Y-7221220I-50000J0D01*
G01*
X12165800Y-7475220D02*
G75*
G03X12165800Y-7475220I-50000J0D01*
G01*
X12165800Y-7729220D02*
G75*
G03X12165800Y-7729220I-50000J0D01*
G01*
X12165800Y-7983220D02*
G75*
G03X12165800Y-7983220I-50000J0D01*
G01*
X12165800Y-8237220D02*
G75*
G03X12165800Y-8237220I-50000J0D01*
G01*
X12165800Y-8491220D02*
G75*
G03X12165800Y-8491220I-50000J0D01*
G01*
X12165800Y-8745220D02*
G75*
G03X12165800Y-8745220I-50000J0D01*
G01*
X12165800Y-8999220D02*
G75*
G03X12165800Y-8999220I-50000J0D01*
G01*
X12165800Y-9253220D02*
G75*
G03X12165800Y-9253220I-50000J0D01*
G01*
X12165800Y-9507220D02*
G75*
G03X12165800Y-9507220I-50000J0D01*
G01*
X12165800Y-9761220D02*
G75*
G03X12165800Y-9761220I-50000J0D01*
G01*
D13*
X7878086Y-15027160D02*
X7878086Y-14727160D01*
X7949515Y-14727160D01*
X7992372Y-14741446D01*
X8020944Y-14770017D01*
X8035229Y-14798589D01*
X8049515Y-14855732D01*
X8049515Y-14898589D01*
X8035229Y-14955732D01*
X8020944Y-14984303D01*
X7992372Y-15012875D01*
X7949515Y-15027160D01*
X7878086Y-15027160D01*
X8178086Y-15027160D02*
X8178086Y-14827160D01*
X8178086Y-14884303D02*
X8192372Y-14855732D01*
X8206658Y-14841446D01*
X8235229Y-14827160D01*
X8263801Y-14827160D01*
X8363801Y-15027160D02*
X8363801Y-14827160D01*
X8363801Y-14727160D02*
X8349515Y-14741446D01*
X8363801Y-14755732D01*
X8378086Y-14741446D01*
X8363801Y-14727160D01*
X8363801Y-14755732D01*
X8549515Y-15027160D02*
X8520944Y-15012875D01*
X8506658Y-14984303D01*
X8506658Y-14727160D01*
X8706658Y-15027160D02*
X8678087Y-15012875D01*
X8663801Y-14984303D01*
X8663801Y-14727160D01*
X9049515Y-15027160D02*
X9049515Y-14727160D01*
X9149515Y-14941446D01*
X9249515Y-14727160D01*
X9249515Y-15027160D01*
X9520944Y-15027160D02*
X9520944Y-14870017D01*
X9506658Y-14841446D01*
X9478087Y-14827160D01*
X9420944Y-14827160D01*
X9392372Y-14841446D01*
X9520944Y-15012875D02*
X9492372Y-15027160D01*
X9420944Y-15027160D01*
X9392372Y-15012875D01*
X9378087Y-14984303D01*
X9378087Y-14955732D01*
X9392372Y-14927160D01*
X9420944Y-14912875D01*
X9492372Y-14912875D01*
X9520944Y-14898589D01*
X9663801Y-14827160D02*
X9663801Y-15127160D01*
X9663801Y-14841446D02*
X9692372Y-14827160D01*
X9749515Y-14827160D01*
X9778087Y-14841446D01*
X9792372Y-14855732D01*
X9806658Y-14884303D01*
X9806658Y-14970017D01*
X9792372Y-14998589D01*
X9778087Y-15012875D01*
X9749515Y-15027160D01*
X9692372Y-15027160D01*
X9663801Y-15012875D01*
X9935229Y-14998589D02*
X9949515Y-15012875D01*
X9935229Y-15027160D01*
X9920944Y-15012875D01*
X9935229Y-14998589D01*
X9935229Y-15027160D01*
X9935229Y-14841446D02*
X9949515Y-14855732D01*
X9935229Y-14870017D01*
X9920944Y-14855732D01*
X9935229Y-14841446D01*
X9935229Y-14870017D01*
X7566658Y-15501446D02*
X7606658Y-15541446D01*
X7606658Y-15501446D02*
X7566658Y-15541446D01*
X7935229Y-15357160D02*
X7963801Y-15357160D01*
X7992372Y-15371446D01*
X8006658Y-15385732D01*
X8020944Y-15414303D01*
X8035229Y-15471446D01*
X8035229Y-15542875D01*
X8020944Y-15600017D01*
X8006658Y-15628589D01*
X7992372Y-15642875D01*
X7963801Y-15657160D01*
X7935229Y-15657160D01*
X7906658Y-15642875D01*
X7892372Y-15628589D01*
X7878086Y-15600017D01*
X7863801Y-15542875D01*
X7863801Y-15471446D01*
X7878086Y-15414303D01*
X7892372Y-15385732D01*
X7906658Y-15371446D01*
X7935229Y-15357160D01*
X8163801Y-15628589D02*
X8178086Y-15642875D01*
X8163801Y-15657160D01*
X8149515Y-15642875D01*
X8163801Y-15628589D01*
X8163801Y-15657160D01*
X8435229Y-15457160D02*
X8435229Y-15657160D01*
X8363801Y-15342875D02*
X8292372Y-15557160D01*
X8478086Y-15557160D01*
X8649515Y-15357160D02*
X8678087Y-15357160D01*
X8706658Y-15371446D01*
X8720944Y-15385732D01*
X8735229Y-15414303D01*
X8749515Y-15471446D01*
X8749515Y-15542875D01*
X8735229Y-15600017D01*
X8720944Y-15628589D01*
X8706658Y-15642875D01*
X8678087Y-15657160D01*
X8649515Y-15657160D01*
X8620944Y-15642875D01*
X8606658Y-15628589D01*
X8592372Y-15600017D01*
X8578087Y-15542875D01*
X8578087Y-15471446D01*
X8592372Y-15414303D01*
X8606658Y-15385732D01*
X8620944Y-15371446D01*
X8649515Y-15357160D01*
X8878087Y-15657160D02*
X8878087Y-15457160D01*
X8878087Y-15485732D02*
X8892372Y-15471446D01*
X8920944Y-15457160D01*
X8963801Y-15457160D01*
X8992372Y-15471446D01*
X9006658Y-15500017D01*
X9006658Y-15657160D01*
X9006658Y-15500017D02*
X9020944Y-15471446D01*
X9049515Y-15457160D01*
X9092372Y-15457160D01*
X9120944Y-15471446D01*
X9135229Y-15500017D01*
X9135229Y-15657160D01*
X9278087Y-15657160D02*
X9278087Y-15457160D01*
X9278087Y-15485732D02*
X9292372Y-15471446D01*
X9320944Y-15457160D01*
X9363801Y-15457160D01*
X9392372Y-15471446D01*
X9406658Y-15500017D01*
X9406658Y-15657160D01*
X9406658Y-15500017D02*
X9420944Y-15471446D01*
X9449515Y-15457160D01*
X9492372Y-15457160D01*
X9520944Y-15471446D01*
X9535229Y-15500017D01*
X9535229Y-15657160D01*
X10120944Y-15342875D02*
X9863801Y-15728589D01*
X10506658Y-15357160D02*
X10535229Y-15357160D01*
X10563801Y-15371446D01*
X10578086Y-15385732D01*
X10592372Y-15414303D01*
X10606658Y-15471446D01*
X10606658Y-15542875D01*
X10592372Y-15600017D01*
X10578086Y-15628589D01*
X10563801Y-15642875D01*
X10535229Y-15657160D01*
X10506658Y-15657160D01*
X10478086Y-15642875D01*
X10463801Y-15628589D01*
X10449515Y-15600017D01*
X10435229Y-15542875D01*
X10435229Y-15471446D01*
X10449515Y-15414303D01*
X10463801Y-15385732D01*
X10478086Y-15371446D01*
X10506658Y-15357160D01*
X10735229Y-15628589D02*
X10749515Y-15642875D01*
X10735229Y-15657160D01*
X10720944Y-15642875D01*
X10735229Y-15628589D01*
X10735229Y-15657160D01*
X10935229Y-15357160D02*
X10963801Y-15357160D01*
X10992372Y-15371446D01*
X11006658Y-15385732D01*
X11020944Y-15414303D01*
X11035229Y-15471446D01*
X11035229Y-15542875D01*
X11020944Y-15600017D01*
X11006658Y-15628589D01*
X10992372Y-15642875D01*
X10963801Y-15657160D01*
X10935229Y-15657160D01*
X10906658Y-15642875D01*
X10892372Y-15628589D01*
X10878086Y-15600017D01*
X10863801Y-15542875D01*
X10863801Y-15471446D01*
X10878086Y-15414303D01*
X10892372Y-15385732D01*
X10906658Y-15371446D01*
X10935229Y-15357160D01*
X11320943Y-15657160D02*
X11149515Y-15657160D01*
X11235229Y-15657160D02*
X11235229Y-15357160D01*
X11206658Y-15400017D01*
X11178086Y-15428589D01*
X11149515Y-15442875D01*
X11578086Y-15357160D02*
X11520943Y-15357160D01*
X11492372Y-15371446D01*
X11478086Y-15385732D01*
X11449515Y-15428589D01*
X11435229Y-15485732D01*
X11435229Y-15600017D01*
X11449515Y-15628589D01*
X11463801Y-15642875D01*
X11492372Y-15657160D01*
X11549515Y-15657160D01*
X11578086Y-15642875D01*
X11592372Y-15628589D01*
X11606658Y-15600017D01*
X11606658Y-15528589D01*
X11592372Y-15500017D01*
X11578086Y-15485732D01*
X11549515Y-15471446D01*
X11492372Y-15471446D01*
X11463801Y-15485732D01*
X11449515Y-15500017D01*
X11435229Y-15528589D01*
X11720944Y-15357160D02*
X11720944Y-15414303D01*
X11835229Y-15357160D02*
X11835229Y-15414303D01*
X12278086Y-15771446D02*
X12263801Y-15757160D01*
X12235229Y-15714303D01*
X12220943Y-15685732D01*
X12206658Y-15642875D01*
X12192372Y-15571446D01*
X12192372Y-15514303D01*
X12206658Y-15442875D01*
X12220943Y-15400017D01*
X12235229Y-15371446D01*
X12263801Y-15328589D01*
X12278086Y-15314303D01*
X12549515Y-15657160D02*
X12378086Y-15657160D01*
X12463801Y-15657160D02*
X12463801Y-15357160D01*
X12435229Y-15400017D01*
X12406658Y-15428589D01*
X12378086Y-15442875D01*
X12692372Y-15657160D02*
X12749515Y-15657160D01*
X12778086Y-15642875D01*
X12792372Y-15628589D01*
X12820943Y-15585732D01*
X12835229Y-15528589D01*
X12835229Y-15414303D01*
X12820943Y-15385732D01*
X12806658Y-15371446D01*
X12778086Y-15357160D01*
X12720943Y-15357160D01*
X12692372Y-15371446D01*
X12678086Y-15385732D01*
X12663801Y-15414303D01*
X12663801Y-15485732D01*
X12678086Y-15514303D01*
X12692372Y-15528589D01*
X12720943Y-15542875D01*
X12778086Y-15542875D01*
X12806658Y-15528589D01*
X12820943Y-15514303D01*
X12835229Y-15485732D01*
X13192372Y-15657160D02*
X13192372Y-15357160D01*
X13320943Y-15657160D02*
X13320943Y-15500017D01*
X13306658Y-15471446D01*
X13278086Y-15457160D01*
X13235229Y-15457160D01*
X13206658Y-15471446D01*
X13192372Y-15485732D01*
X13506658Y-15657160D02*
X13478086Y-15642875D01*
X13463801Y-15628589D01*
X13449515Y-15600017D01*
X13449515Y-15514303D01*
X13463801Y-15485732D01*
X13478086Y-15471446D01*
X13506658Y-15457160D01*
X13549515Y-15457160D01*
X13578086Y-15471446D01*
X13592372Y-15485732D01*
X13606658Y-15514303D01*
X13606658Y-15600017D01*
X13592372Y-15628589D01*
X13578086Y-15642875D01*
X13549515Y-15657160D01*
X13506658Y-15657160D01*
X13778086Y-15657160D02*
X13749515Y-15642875D01*
X13735229Y-15614303D01*
X13735229Y-15357160D01*
X14006658Y-15642875D02*
X13978086Y-15657160D01*
X13920944Y-15657160D01*
X13892372Y-15642875D01*
X13878086Y-15614303D01*
X13878086Y-15500017D01*
X13892372Y-15471446D01*
X13920944Y-15457160D01*
X13978086Y-15457160D01*
X14006658Y-15471446D01*
X14020944Y-15500017D01*
X14020944Y-15528589D01*
X13878086Y-15557160D01*
X14135229Y-15642875D02*
X14163801Y-15657160D01*
X14220944Y-15657160D01*
X14249515Y-15642875D01*
X14263801Y-15614303D01*
X14263801Y-15600017D01*
X14249515Y-15571446D01*
X14220944Y-15557160D01*
X14178086Y-15557160D01*
X14149515Y-15542875D01*
X14135229Y-15514303D01*
X14135229Y-15500017D01*
X14149515Y-15471446D01*
X14178086Y-15457160D01*
X14220944Y-15457160D01*
X14249515Y-15471446D01*
X14363801Y-15771446D02*
X14378086Y-15757160D01*
X14406658Y-15714303D01*
X14420944Y-15685732D01*
X14435229Y-15642875D01*
X14449515Y-15571446D01*
X14449515Y-15514303D01*
X14435229Y-15442875D01*
X14420944Y-15400017D01*
X14406658Y-15371446D01*
X14378086Y-15328589D01*
X14363801Y-15314303D01*
X7606658Y-15917446D02*
G75*
G03X7606658Y-15917446I-50000J0D01*
G01*
X8035229Y-16053160D02*
X7863801Y-16053160D01*
X7949515Y-16053160D02*
X7949515Y-15753160D01*
X7920944Y-15796017D01*
X7892372Y-15824589D01*
X7863801Y-15838875D01*
X8163801Y-16024589D02*
X8178086Y-16038875D01*
X8163801Y-16053160D01*
X8149515Y-16038875D01*
X8163801Y-16024589D01*
X8163801Y-16053160D01*
X8363801Y-15753160D02*
X8392372Y-15753160D01*
X8420944Y-15767446D01*
X8435229Y-15781732D01*
X8449515Y-15810303D01*
X8463801Y-15867446D01*
X8463801Y-15938875D01*
X8449515Y-15996017D01*
X8435229Y-16024589D01*
X8420944Y-16038875D01*
X8392372Y-16053160D01*
X8363801Y-16053160D01*
X8335229Y-16038875D01*
X8320944Y-16024589D01*
X8306658Y-15996017D01*
X8292372Y-15938875D01*
X8292372Y-15867446D01*
X8306658Y-15810303D01*
X8320944Y-15781732D01*
X8335229Y-15767446D01*
X8363801Y-15753160D01*
X8649515Y-15753160D02*
X8678087Y-15753160D01*
X8706658Y-15767446D01*
X8720944Y-15781732D01*
X8735229Y-15810303D01*
X8749515Y-15867446D01*
X8749515Y-15938875D01*
X8735229Y-15996017D01*
X8720944Y-16024589D01*
X8706658Y-16038875D01*
X8678087Y-16053160D01*
X8649515Y-16053160D01*
X8620944Y-16038875D01*
X8606658Y-16024589D01*
X8592372Y-15996017D01*
X8578087Y-15938875D01*
X8578087Y-15867446D01*
X8592372Y-15810303D01*
X8606658Y-15781732D01*
X8620944Y-15767446D01*
X8649515Y-15753160D01*
X8878087Y-16053160D02*
X8878087Y-15853160D01*
X8878087Y-15881732D02*
X8892372Y-15867446D01*
X8920944Y-15853160D01*
X8963801Y-15853160D01*
X8992372Y-15867446D01*
X9006658Y-15896017D01*
X9006658Y-16053160D01*
X9006658Y-15896017D02*
X9020944Y-15867446D01*
X9049515Y-15853160D01*
X9092372Y-15853160D01*
X9120944Y-15867446D01*
X9135229Y-15896017D01*
X9135229Y-16053160D01*
X9278087Y-16053160D02*
X9278087Y-15853160D01*
X9278087Y-15881732D02*
X9292372Y-15867446D01*
X9320944Y-15853160D01*
X9363801Y-15853160D01*
X9392372Y-15867446D01*
X9406658Y-15896017D01*
X9406658Y-16053160D01*
X9406658Y-15896017D02*
X9420944Y-15867446D01*
X9449515Y-15853160D01*
X9492372Y-15853160D01*
X9520944Y-15867446D01*
X9535229Y-15896017D01*
X9535229Y-16053160D01*
X10120944Y-15738875D02*
X9863801Y-16124589D01*
X10506658Y-15753160D02*
X10535229Y-15753160D01*
X10563801Y-15767446D01*
X10578086Y-15781732D01*
X10592372Y-15810303D01*
X10606658Y-15867446D01*
X10606658Y-15938875D01*
X10592372Y-15996017D01*
X10578086Y-16024589D01*
X10563801Y-16038875D01*
X10535229Y-16053160D01*
X10506658Y-16053160D01*
X10478086Y-16038875D01*
X10463801Y-16024589D01*
X10449515Y-15996017D01*
X10435229Y-15938875D01*
X10435229Y-15867446D01*
X10449515Y-15810303D01*
X10463801Y-15781732D01*
X10478086Y-15767446D01*
X10506658Y-15753160D01*
X10735229Y-16024589D02*
X10749515Y-16038875D01*
X10735229Y-16053160D01*
X10720944Y-16038875D01*
X10735229Y-16024589D01*
X10735229Y-16053160D01*
X10935229Y-15753160D02*
X10963801Y-15753160D01*
X10992372Y-15767446D01*
X11006658Y-15781732D01*
X11020944Y-15810303D01*
X11035229Y-15867446D01*
X11035229Y-15938875D01*
X11020944Y-15996017D01*
X11006658Y-16024589D01*
X10992372Y-16038875D01*
X10963801Y-16053160D01*
X10935229Y-16053160D01*
X10906658Y-16038875D01*
X10892372Y-16024589D01*
X10878086Y-15996017D01*
X10863801Y-15938875D01*
X10863801Y-15867446D01*
X10878086Y-15810303D01*
X10892372Y-15781732D01*
X10906658Y-15767446D01*
X10935229Y-15753160D01*
X11135229Y-15753160D02*
X11320943Y-15753160D01*
X11220943Y-15867446D01*
X11263801Y-15867446D01*
X11292372Y-15881732D01*
X11306658Y-15896017D01*
X11320943Y-15924589D01*
X11320943Y-15996017D01*
X11306658Y-16024589D01*
X11292372Y-16038875D01*
X11263801Y-16053160D01*
X11178086Y-16053160D01*
X11149515Y-16038875D01*
X11135229Y-16024589D01*
X11463801Y-16053160D02*
X11520943Y-16053160D01*
X11549515Y-16038875D01*
X11563801Y-16024589D01*
X11592372Y-15981732D01*
X11606658Y-15924589D01*
X11606658Y-15810303D01*
X11592372Y-15781732D01*
X11578086Y-15767446D01*
X11549515Y-15753160D01*
X11492372Y-15753160D01*
X11463801Y-15767446D01*
X11449515Y-15781732D01*
X11435229Y-15810303D01*
X11435229Y-15881732D01*
X11449515Y-15910303D01*
X11463801Y-15924589D01*
X11492372Y-15938875D01*
X11549515Y-15938875D01*
X11578086Y-15924589D01*
X11592372Y-15910303D01*
X11606658Y-15881732D01*
X11720944Y-15753160D02*
X11720944Y-15810303D01*
X11835229Y-15753160D02*
X11835229Y-15810303D01*
X12278086Y-16167446D02*
X12263801Y-16153160D01*
X12235229Y-16110303D01*
X12220943Y-16081732D01*
X12206658Y-16038875D01*
X12192372Y-15967446D01*
X12192372Y-15910303D01*
X12206658Y-15838875D01*
X12220943Y-15796017D01*
X12235229Y-15767446D01*
X12263801Y-15724589D01*
X12278086Y-15710303D01*
X12520943Y-15853160D02*
X12520943Y-16053160D01*
X12449515Y-15738875D02*
X12378086Y-15953160D01*
X12563801Y-15953160D01*
X12735229Y-15753160D02*
X12763801Y-15753160D01*
X12792372Y-15767446D01*
X12806658Y-15781732D01*
X12820943Y-15810303D01*
X12835229Y-15867446D01*
X12835229Y-15938875D01*
X12820943Y-15996017D01*
X12806658Y-16024589D01*
X12792372Y-16038875D01*
X12763801Y-16053160D01*
X12735229Y-16053160D01*
X12706658Y-16038875D01*
X12692372Y-16024589D01*
X12678086Y-15996017D01*
X12663801Y-15938875D01*
X12663801Y-15867446D01*
X12678086Y-15810303D01*
X12692372Y-15781732D01*
X12706658Y-15767446D01*
X12735229Y-15753160D01*
X13192372Y-16053160D02*
X13192372Y-15753160D01*
X13320943Y-16053160D02*
X13320943Y-15896017D01*
X13306658Y-15867446D01*
X13278086Y-15853160D01*
X13235229Y-15853160D01*
X13206658Y-15867446D01*
X13192372Y-15881732D01*
X13506658Y-16053160D02*
X13478086Y-16038875D01*
X13463801Y-16024589D01*
X13449515Y-15996017D01*
X13449515Y-15910303D01*
X13463801Y-15881732D01*
X13478086Y-15867446D01*
X13506658Y-15853160D01*
X13549515Y-15853160D01*
X13578086Y-15867446D01*
X13592372Y-15881732D01*
X13606658Y-15910303D01*
X13606658Y-15996017D01*
X13592372Y-16024589D01*
X13578086Y-16038875D01*
X13549515Y-16053160D01*
X13506658Y-16053160D01*
X13778086Y-16053160D02*
X13749515Y-16038875D01*
X13735229Y-16010303D01*
X13735229Y-15753160D01*
X14006658Y-16038875D02*
X13978086Y-16053160D01*
X13920944Y-16053160D01*
X13892372Y-16038875D01*
X13878086Y-16010303D01*
X13878086Y-15896017D01*
X13892372Y-15867446D01*
X13920944Y-15853160D01*
X13978086Y-15853160D01*
X14006658Y-15867446D01*
X14020944Y-15896017D01*
X14020944Y-15924589D01*
X13878086Y-15953160D01*
X14135229Y-16038875D02*
X14163801Y-16053160D01*
X14220944Y-16053160D01*
X14249515Y-16038875D01*
X14263801Y-16010303D01*
X14263801Y-15996017D01*
X14249515Y-15967446D01*
X14220944Y-15953160D01*
X14178086Y-15953160D01*
X14149515Y-15938875D01*
X14135229Y-15910303D01*
X14135229Y-15896017D01*
X14149515Y-15867446D01*
X14178086Y-15853160D01*
X14220944Y-15853160D01*
X14249515Y-15867446D01*
X14363801Y-16167446D02*
X14378086Y-16153160D01*
X14406658Y-16110303D01*
X14420944Y-16081732D01*
X14435229Y-16038875D01*
X14449515Y-15967446D01*
X14449515Y-15910303D01*
X14435229Y-15838875D01*
X14420944Y-15796017D01*
X14406658Y-15767446D01*
X14378086Y-15724589D01*
X14363801Y-15710303D01*
M02*
