M48
;DRILL file {KiCad 4.0.7} date 07/15/18 20:55:23
;FORMAT={-:-/ absolute / metric / decimal}
FMAT,2
METRIC,TZ
T1C0.400
T2C1.000
%
G90
G05
M71
T1
X85.245Y-95.024
X87.173Y-92.565
X89.101Y-89.939
X91.001Y-87.48
X92.928Y-84.854
X94.8Y-82.451
X96.756Y-79.88
X98.628Y-77.226
X100.388Y-74.851
X102.344Y-72.225
X104.188Y-69.599
X105.781Y-67.196
X107.429Y-64.513
X108.994Y-62.055
X110.587Y-59.596
X112.263Y-56.942
X113.8Y-54.623
X115.42Y-51.801
X121.143Y-45.552
T2
X118.618Y-49.352
X118.618Y-51.892
X118.618Y-54.432
X118.618Y-56.972
X118.618Y-59.512
X118.618Y-62.052
X118.618Y-64.592
X118.618Y-67.132
X118.618Y-69.672
X118.618Y-72.212
X118.618Y-74.752
X118.618Y-77.292
X118.618Y-79.832
X118.618Y-82.372
X118.618Y-84.912
X118.618Y-87.452
X118.618Y-89.992
X118.618Y-92.532
X118.618Y-95.072
X118.618Y-97.612
X121.158Y-49.352
X121.158Y-51.892
X121.158Y-54.432
X121.158Y-56.972
X121.158Y-59.512
X121.158Y-62.052
X121.158Y-64.592
X121.158Y-67.132
X121.158Y-69.672
X121.158Y-72.212
X121.158Y-74.752
X121.158Y-77.292
X121.158Y-79.832
X121.158Y-82.372
X121.158Y-84.912
X121.158Y-87.452
X121.158Y-89.992
X121.158Y-92.532
X121.158Y-95.072
X121.158Y-97.612
T0
M30
